<?xml version="1.0" encoding="utf-8" standalone="no"?>
<!DOCTYPE svg PUBLIC "-//W3C//DTD SVG 1.1//EN"
  "http://www.w3.org/Graphics/SVG/1.1/DTD/svg11.dtd">
<svg xmlns:xlink="http://www.w3.org/1999/xlink" width="432pt" height="576pt" viewBox="0 0 432 576" xmlns="http://www.w3.org/2000/svg" version="1.1">
 <metadata>
  <rdf:RDF xmlns:dc="http://purl.org/dc/elements/1.1/" xmlns:cc="http://creativecommons.org/ns#" xmlns:rdf="http://www.w3.org/1999/02/22-rdf-syntax-ns#">
   <cc:Work>
    <dc:type rdf:resource="http://purl.org/dc/dcmitype/StillImage"/>
    <dc:date>2024-06-04T03:35:24.538680</dc:date>
    <dc:format>image/svg+xml</dc:format>
    <dc:creator>
     <cc:Agent>
      <dc:title>Matplotlib v3.7.2, https://matplotlib.org/</dc:title>
     </cc:Agent>
    </dc:creator>
   </cc:Work>
  </rdf:RDF>
 </metadata>
 <defs>
  <style type="text/css">*{stroke-linejoin: round; stroke-linecap: butt}</style>
 </defs>
 <g id="figure_1">
  <g id="patch_1">
   <path d="M 0 576 
L 432 576 
L 432 0 
L 0 0 
z
" style="fill: #ffffff"/>
  </g>
  <g id="axes_1">
   <g id="patch_2">
    <path d="M 72.02 234.07 
L 415.26 234.07 
L 415.26 16.74 
L 72.02 16.74 
z
" style="fill: #ffffff"/>
   </g>
   <g id="PolyCollection_1">
    <path d="M 103.173495 224.191364 
L 100.437083 224.191364 
L 100.456999 222.19568 
L 100.515022 220.199995 
L 100.606233 218.204311 
L 100.723198 216.208627 
L 100.856975 214.212943 
L 100.998231 212.217259 
L 101.138295 210.221575 
L 101.269981 208.225891 
L 101.388081 206.230207 
L 101.489518 204.234522 
L 101.57319 202.238838 
L 101.639603 200.243154 
L 101.690398 198.24747 
L 101.727865 196.251786 
L 101.754521 194.256102 
L 101.772795 192.260418 
L 101.784822 190.264734 
L 101.792348 188.26905 
L 101.796711 186.273365 
L 101.798877 184.277681 
L 101.799509 182.281997 
L 101.799034 180.286313 
L 101.797726 178.290629 
L 101.795756 176.294945 
L 101.793252 174.299261 
L 101.790321 172.303577 
L 101.787071 170.307893 
L 101.783605 168.312208 
L 101.78 166.316524 
L 101.776272 164.32084 
L 101.772323 162.325156 
L 101.767885 160.329472 
L 101.762466 158.333788 
L 101.755308 156.338104 
L 101.74538 154.34242 
L 101.731402 152.346736 
L 101.711945 150.351051 
L 101.685573 148.355367 
L 101.65106 146.359683 
L 101.607638 144.363999 
L 101.555266 142.368315 
L 101.494852 140.372631 
L 101.428394 138.376947 
L 101.358973 136.381263 
L 101.290583 134.385579 
L 101.227775 132.389894 
L 101.175155 130.39421 
L 101.136802 128.398526 
L 101.115707 126.402842 
L 101.113315 124.407158 
L 101.129275 122.411474 
L 101.161446 120.41579 
L 101.206153 118.420106 
L 101.258664 116.424421 
L 101.313804 114.428737 
L 101.366598 112.433053 
L 101.412851 110.437369 
L 101.449577 108.441685 
L 101.475242 106.446001 
L 101.489783 104.450317 
L 101.494448 102.454633 
L 101.491475 100.458949 
L 101.483689 98.463264 
L 101.474065 96.46758 
L 101.465335 94.471896 
L 101.459674 92.476212 
L 101.458512 90.480528 
L 101.462477 88.484844 
L 101.471465 86.48916 
L 101.484802 84.493476 
L 101.501454 82.497792 
L 101.520241 80.502107 
L 101.540002 78.506423 
L 101.55968 76.510739 
L 101.578305 74.515055 
L 101.594856 72.519371 
L 101.608006 70.523687 
L 101.61575 68.528003 
L 101.614902 66.532319 
L 101.60049 64.536635 
L 101.565059 62.54095 
L 101.497952 60.545266 
L 101.384693 58.549582 
L 101.206654 56.553898 
L 100.941262 54.558214 
L 100.563031 52.56253 
L 100.045654 50.566846 
L 99.365289 48.571162 
L 98.504904 46.575478 
L 97.459287 44.579793 
L 96.239941 42.584109 
L 94.878873 40.588425 
L 93.430168 38.592741 
L 91.968439 36.597057 
L 90.583672 34.601373 
L 89.37271 32.605689 
L 88.428344 30.610005 
L 87.827686 28.61432 
L 87.621818 26.618636 
L 115.98876 26.618636 
L 115.98876 26.618636 
L 115.782892 28.61432 
L 115.182234 30.610005 
L 114.237868 32.605689 
L 113.026906 34.601373 
L 111.64214 36.597057 
L 110.18041 38.592741 
L 108.731705 40.588425 
L 107.370637 42.584109 
L 106.151291 44.579793 
L 105.105674 46.575478 
L 104.245289 48.571162 
L 103.564924 50.566846 
L 103.047548 52.56253 
L 102.669317 54.558214 
L 102.403925 56.553898 
L 102.225886 58.549582 
L 102.112627 60.545266 
L 102.04552 62.54095 
L 102.010089 64.536635 
L 101.995677 66.532319 
L 101.994829 68.528003 
L 102.002572 70.523687 
L 102.015723 72.519371 
L 102.032274 74.515055 
L 102.050898 76.510739 
L 102.070577 78.506423 
L 102.090337 80.502107 
L 102.109124 82.497792 
L 102.125776 84.493476 
L 102.139113 86.48916 
L 102.148101 88.484844 
L 102.152066 90.480528 
L 102.150904 92.476212 
L 102.145243 94.471896 
L 102.136513 96.46758 
L 102.12689 98.463264 
L 102.119103 100.458949 
L 102.116131 102.454633 
L 102.120795 104.450317 
L 102.135337 106.446001 
L 102.161001 108.441685 
L 102.197728 110.437369 
L 102.24398 112.433053 
L 102.296775 114.428737 
L 102.351915 116.424421 
L 102.404426 118.420106 
L 102.449132 120.41579 
L 102.481303 122.411474 
L 102.497264 124.407158 
L 102.494871 126.402842 
L 102.473776 128.398526 
L 102.435424 130.39421 
L 102.382803 132.389894 
L 102.319995 134.385579 
L 102.251606 136.381263 
L 102.182185 138.376947 
L 102.115726 140.372631 
L 102.055313 142.368315 
L 102.002941 144.363999 
L 101.959519 146.359683 
L 101.925005 148.355367 
L 101.898633 150.351051 
L 101.879176 152.346736 
L 101.865199 154.34242 
L 101.85527 156.338104 
L 101.848113 158.333788 
L 101.842694 160.329472 
L 101.838256 162.325156 
L 101.834307 164.32084 
L 101.830578 166.316524 
L 101.826974 168.312208 
L 101.823507 170.307893 
L 101.820258 172.303577 
L 101.817327 174.299261 
L 101.814822 176.294945 
L 101.812853 178.290629 
L 101.811544 180.286313 
L 101.81107 182.281997 
L 101.811701 184.277681 
L 101.813868 186.273365 
L 101.818231 188.26905 
L 101.825756 190.264734 
L 101.837784 192.260418 
L 101.856058 194.256102 
L 101.882714 196.251786 
L 101.920181 198.24747 
L 101.970976 200.243154 
L 102.037388 202.238838 
L 102.12106 204.234522 
L 102.222497 206.230207 
L 102.340597 208.225891 
L 102.472283 210.221575 
L 102.612348 212.217259 
L 102.753604 214.212943 
L 102.887381 216.208627 
L 103.004346 218.204311 
L 103.095556 220.199995 
L 103.15358 222.19568 
L 103.173495 224.191364 
z
" clip-path="url(#p2f09e9795c)" style="fill: #1f77b4; fill-opacity: 0.3"/>
   </g>
   <g id="PolyCollection_2">
    <path d="M 160.371456 224.191364 
L 156.706891 224.191364 
L 156.728654 222.19568 
L 156.792414 220.199995 
L 156.893729 218.204311 
L 157.025761 216.208627 
L 157.180043 214.212943 
L 157.347367 212.217259 
L 157.518678 210.221575 
L 157.685846 208.225891 
L 157.842241 206.230207 
L 157.983053 204.234522 
L 158.105358 202.238838 
L 158.207983 200.243154 
L 158.291202 198.24747 
L 158.356364 196.251786 
L 158.405493 194.256102 
L 158.440934 192.260418 
L 158.465061 190.264734 
L 158.480076 188.26905 
L 158.487888 186.273365 
L 158.49007 184.277681 
L 158.487868 182.281997 
L 158.482247 180.286313 
L 158.473958 178.290629 
L 158.463603 176.294945 
L 158.451691 174.299261 
L 158.438681 172.303577 
L 158.424986 170.307893 
L 158.410956 168.312208 
L 158.39683 166.316524 
L 158.382666 164.32084 
L 158.368258 162.325156 
L 158.353056 160.329472 
L 158.336109 158.333788 
L 158.316052 156.338104 
L 158.291148 154.34242 
L 158.259416 152.346736 
L 158.218819 150.351051 
L 158.167541 148.355367 
L 158.10429 146.359683 
L 158.028623 144.363999 
L 157.941219 142.368315 
L 157.844073 140.372631 
L 157.740527 138.376947 
L 157.635147 136.381263 
L 157.533389 134.385579 
L 157.441117 132.389894 
L 157.363988 130.39421 
L 157.306809 128.398526 
L 157.272935 126.402842 
L 157.263824 124.407158 
L 157.278802 122.411474 
L 157.315105 120.41579 
L 157.368175 118.420106 
L 157.432194 116.424421 
L 157.50077 114.428737 
L 157.567672 112.433053 
L 157.627528 110.437369 
L 157.676377 108.441685 
L 157.712015 106.446001 
L 157.734098 104.450317 
L 157.744013 102.454633 
L 157.744536 100.458949 
L 157.739357 98.463264 
L 157.732532 96.46758 
L 157.727952 94.471896 
L 157.728892 92.476212 
L 157.737692 90.480528 
L 157.755595 88.484844 
L 157.782747 86.48916 
L 157.818319 84.493476 
L 157.860719 82.497792 
L 157.907832 80.502107 
L 157.957232 78.506423 
L 158.006316 76.510739 
L 158.052317 74.515055 
L 158.092186 72.519371 
L 158.122332 70.523687 
L 158.138232 68.528003 
L 158.133958 66.532319 
L 158.101666 64.536635 
L 158.031138 62.54095 
L 157.909478 60.545266 
L 157.721098 58.549582 
L 157.448129 56.553898 
L 157.071392 54.558214 
L 156.572011 52.56253 
L 155.933676 50.566846 
L 155.145431 48.571162 
L 154.204743 46.575478 
L 153.120417 44.579793 
L 151.914886 42.584109 
L 150.625296 40.588425 
L 149.302944 38.592741 
L 148.010773 36.597057 
L 146.818937 34.601373 
L 145.798789 32.605689 
L 145.015955 30.610005 
L 144.523433 28.61432 
L 144.355702 26.618636 
L 172.722645 26.618636 
L 172.722645 26.618636 
L 172.554914 28.61432 
L 172.062392 30.610005 
L 171.279558 32.605689 
L 170.25941 34.601373 
L 169.067574 36.597057 
L 167.775403 38.592741 
L 166.453051 40.588425 
L 165.163461 42.584109 
L 163.95793 44.579793 
L 162.873605 46.575478 
L 161.932916 48.571162 
L 161.144671 50.566846 
L 160.506336 52.56253 
L 160.006955 54.558214 
L 159.630218 56.553898 
L 159.357249 58.549582 
L 159.16887 60.545266 
L 159.04721 62.54095 
L 158.976681 64.536635 
L 158.944389 66.532319 
L 158.940115 68.528003 
L 158.956015 70.523687 
L 158.986161 72.519371 
L 159.026031 74.515055 
L 159.072031 76.510739 
L 159.121115 78.506423 
L 159.170515 80.502107 
L 159.217628 82.497792 
L 159.260028 84.493476 
L 159.2956 86.48916 
L 159.322752 88.484844 
L 159.340655 90.480528 
L 159.349455 92.476212 
L 159.350395 94.471896 
L 159.345815 96.46758 
L 159.338991 98.463264 
L 159.333811 100.458949 
L 159.334334 102.454633 
L 159.344249 104.450317 
L 159.366332 106.446001 
L 159.40197 108.441685 
L 159.450819 110.437369 
L 159.510675 112.433053 
L 159.577577 114.428737 
L 159.646153 116.424421 
L 159.710172 118.420106 
L 159.763242 120.41579 
L 159.799545 122.411474 
L 159.814523 124.407158 
L 159.805412 126.402842 
L 159.771538 128.398526 
L 159.714359 130.39421 
L 159.637231 132.389894 
L 159.544958 134.385579 
L 159.4432 136.381263 
L 159.33782 138.376947 
L 159.234274 140.372631 
L 159.137128 142.368315 
L 159.049724 144.363999 
L 158.974057 146.359683 
L 158.910806 148.355367 
L 158.859528 150.351051 
L 158.818932 152.346736 
L 158.787199 154.34242 
L 158.762295 156.338104 
L 158.742238 158.333788 
L 158.725291 160.329472 
L 158.710089 162.325156 
L 158.695681 164.32084 
L 158.681517 166.316524 
L 158.667391 168.312208 
L 158.653361 170.307893 
L 158.639666 172.303577 
L 158.626656 174.299261 
L 158.614745 176.294945 
L 158.604389 178.290629 
L 158.5961 180.286313 
L 158.590479 182.281997 
L 158.588277 184.277681 
L 158.590459 186.273365 
L 158.598271 188.26905 
L 158.613286 190.264734 
L 158.637413 192.260418 
L 158.672854 194.256102 
L 158.721983 196.251786 
L 158.787145 198.24747 
L 158.870364 200.243154 
L 158.972989 202.238838 
L 159.095295 204.234522 
L 159.236106 206.230207 
L 159.392501 208.225891 
L 159.559669 210.221575 
L 159.73098 212.217259 
L 159.898304 214.212943 
L 160.052586 216.208627 
L 160.184618 218.204311 
L 160.285933 220.199995 
L 160.349694 222.19568 
L 160.371456 224.191364 
z
" clip-path="url(#p2f09e9795c)" style="fill: #1f77b4; fill-opacity: 0.3"/>
   </g>
   <g id="PolyCollection_3">
    <path d="M 216.616365 224.191364 
L 213.92975 224.191364 
L 213.955943 222.19568 
L 214.031498 220.199995 
L 214.147913 218.204311 
L 214.292788 216.208627 
L 214.451987 214.212943 
L 214.611882 212.217259 
L 214.761184 210.221575 
L 214.892045 208.225891 
L 215.000344 206.230207 
L 215.085289 204.234522 
L 215.148577 202.238838 
L 215.193396 200.243154 
L 215.223516 198.24747 
L 215.242603 196.251786 
L 215.253806 194.256102 
L 215.259582 192.260418 
L 215.261702 190.264734 
L 215.261354 188.26905 
L 215.259274 186.273365 
L 215.255881 184.277681 
L 215.251375 182.281997 
L 215.245814 180.286313 
L 215.239166 178.290629 
L 215.231363 176.294945 
L 215.22236 174.299261 
L 215.212193 172.303577 
L 215.201048 170.307893 
L 215.189297 168.312208 
L 215.177496 166.316524 
L 215.166319 164.32084 
L 215.156416 162.325156 
L 215.148225 160.329472 
L 215.141735 158.333788 
L 215.136269 156.338104 
L 215.130295 154.34242 
L 215.121327 152.346736 
L 215.105956 150.351051 
L 215.080031 148.355367 
L 215.039065 146.359683 
L 214.978853 144.363999 
L 214.896309 142.368315 
L 214.790428 140.372631 
L 214.663179 138.376947 
L 214.520108 136.381263 
L 214.370377 134.385579 
L 214.226044 132.389894 
L 214.100585 130.39421 
L 214.006824 128.398526 
L 213.954688 126.402842 
L 213.949276 124.407158 
L 213.989728 122.411474 
L 214.069163 120.41579 
L 214.175732 118.420106 
L 214.294498 116.424421 
L 214.409746 114.428737 
L 214.507236 112.433053 
L 214.576013 110.437369 
L 214.609574 108.441685 
L 214.606322 106.446001 
L 214.569386 104.450317 
L 214.505895 102.454633 
L 214.425833 100.458949 
L 214.340579 98.463264 
L 214.261296 96.46758 
L 214.197387 94.471896 
L 214.155255 92.476212 
L 214.137644 90.480528 
L 214.143686 88.484844 
L 214.169642 86.48916 
L 214.21014 84.493476 
L 214.259565 82.497792 
L 214.313254 80.502107 
L 214.368202 78.506423 
L 214.423206 76.510739 
L 214.478477 74.515055 
L 214.534956 72.519371 
L 214.593539 70.523687 
L 214.654404 68.528003 
L 214.716512 66.532319 
L 214.777234 64.536635 
L 214.831964 62.54095 
L 214.873575 60.545266 
L 214.89157 58.549582 
L 214.870944 56.553898 
L 214.790919 54.558214 
L 214.623995 52.56253 
L 214.335968 50.566846 
L 213.887709 48.571162 
L 213.239468 46.575478 
L 212.357988 44.579793 
L 211.225993 42.584109 
L 209.852562 40.588425 
L 208.281903 38.592741 
L 206.597529 36.597057 
L 204.919171 34.601373 
L 203.391125 32.605689 
L 202.162947 30.610005 
L 201.365803 28.61432 
L 201.089587 26.618636 
L 229.456529 26.618636 
L 229.456529 26.618636 
L 229.180313 28.61432 
L 228.383169 30.610005 
L 227.154991 32.605689 
L 225.626945 34.601373 
L 223.948586 36.597057 
L 222.264213 38.592741 
L 220.693554 40.588425 
L 219.320123 42.584109 
L 218.188128 44.579793 
L 217.306647 46.575478 
L 216.658407 48.571162 
L 216.210148 50.566846 
L 215.92212 52.56253 
L 215.755197 54.558214 
L 215.675172 56.553898 
L 215.654545 58.549582 
L 215.672541 60.545266 
L 215.714152 62.54095 
L 215.768882 64.536635 
L 215.829603 66.532319 
L 215.891712 68.528003 
L 215.952577 70.523687 
L 216.01116 72.519371 
L 216.067639 74.515055 
L 216.12291 76.510739 
L 216.177913 78.506423 
L 216.232862 80.502107 
L 216.28655 82.497792 
L 216.335976 84.493476 
L 216.376474 86.48916 
L 216.40243 88.484844 
L 216.408472 90.480528 
L 216.390861 92.476212 
L 216.348729 94.471896 
L 216.284819 96.46758 
L 216.205537 98.463264 
L 216.120282 100.458949 
L 216.04022 102.454633 
L 215.97673 104.450317 
L 215.939794 106.446001 
L 215.936542 108.441685 
L 215.970102 110.437369 
L 216.03888 112.433053 
L 216.13637 114.428737 
L 216.251618 116.424421 
L 216.370384 118.420106 
L 216.476952 120.41579 
L 216.556388 122.411474 
L 216.596839 124.407158 
L 216.591428 126.402842 
L 216.539291 128.398526 
L 216.445531 130.39421 
L 216.320072 132.389894 
L 216.175739 134.385579 
L 216.026007 136.381263 
L 215.882937 138.376947 
L 215.755688 140.372631 
L 215.649807 142.368315 
L 215.567263 144.363999 
L 215.50705 146.359683 
L 215.466084 148.355367 
L 215.44016 150.351051 
L 215.424788 152.346736 
L 215.415821 154.34242 
L 215.409846 156.338104 
L 215.40438 158.333788 
L 215.397891 160.329472 
L 215.3897 162.325156 
L 215.379797 164.32084 
L 215.368619 166.316524 
L 215.356819 168.312208 
L 215.345068 170.307893 
L 215.333922 172.303577 
L 215.323756 174.299261 
L 215.314752 176.294945 
L 215.30695 178.290629 
L 215.300302 180.286313 
L 215.29474 182.281997 
L 215.290235 184.277681 
L 215.286842 186.273365 
L 215.284762 188.26905 
L 215.284413 190.264734 
L 215.286534 192.260418 
L 215.29231 194.256102 
L 215.303513 196.251786 
L 215.3226 198.24747 
L 215.35272 200.243154 
L 215.397538 202.238838 
L 215.460826 204.234522 
L 215.545772 206.230207 
L 215.654071 208.225891 
L 215.784931 210.221575 
L 215.934234 212.217259 
L 216.094129 214.212943 
L 216.253327 216.208627 
L 216.398202 218.204311 
L 216.514618 220.199995 
L 216.590172 222.19568 
L 216.616365 224.191364 
z
" clip-path="url(#p2f09e9795c)" style="fill: #1f77b4; fill-opacity: 0.3"/>
   </g>
   <g id="PolyCollection_4">
    <path d="M 273.48618 224.191364 
L 270.527704 224.191364 
L 270.554794 222.19568 
L 270.633124 220.199995 
L 270.754396 218.204311 
L 270.906406 216.208627 
L 271.075056 214.212943 
L 271.246488 212.217259 
L 271.408882 210.221575 
L 271.553627 208.225891 
L 271.675736 206.230207 
L 271.773602 204.234522 
L 271.848291 202.238838 
L 271.902615 200.243154 
L 271.940232 198.24747 
L 271.964915 196.251786 
L 271.98006 194.256102 
L 271.98844 192.260418 
L 271.992133 190.264734 
L 271.992586 188.26905 
L 271.990723 186.273365 
L 271.987073 184.277681 
L 271.981889 182.281997 
L 271.975239 180.286313 
L 271.967095 178.290629 
L 271.957408 176.294945 
L 271.946192 174.299261 
L 271.933599 172.303577 
L 271.919982 170.307893 
L 271.905925 168.312208 
L 271.892213 166.316524 
L 271.879733 164.32084 
L 271.869296 162.325156 
L 271.861411 160.329472 
L 271.856034 158.333788 
L 271.852337 156.338104 
L 271.848549 154.34242 
L 271.841907 152.346736 
L 271.828762 150.351051 
L 271.804862 148.355367 
L 271.765829 146.359683 
L 271.707817 144.363999 
L 271.628303 142.368315 
L 271.526906 140.372631 
L 271.406077 138.376947 
L 271.271461 136.381263 
L 271.131758 134.385579 
L 270.997963 132.389894 
L 270.882017 130.39421 
L 270.79504 128.398526 
L 270.745482 126.402842 
L 270.737578 124.407158 
L 270.770459 122.411474 
L 270.838142 120.41579 
L 270.930405 118.420106 
L 271.034349 116.424421 
L 271.136339 114.428737 
L 271.223916 112.433053 
L 271.287398 110.437369 
L 271.320931 108.441685 
L 271.322941 106.446001 
L 271.295993 104.450317 
L 271.246155 102.454633 
L 271.181973 100.458949 
L 271.113193 98.463264 
L 271.049387 96.46758 
L 270.998666 94.471896 
L 270.966677 92.476212 
L 270.956062 90.480528 
L 270.96647 88.484844 
L 270.99509 86.48916 
L 271.037578 84.493476 
L 271.089118 82.497792 
L 271.145367 80.502107 
L 271.203094 78.506423 
L 271.260394 76.510739 
L 271.316528 74.515055 
L 271.371485 72.519371 
L 271.425421 70.523687 
L 271.478098 68.528003 
L 271.528369 66.532319 
L 271.573672 64.536635 
L 271.609464 62.54095 
L 271.628477 60.545266 
L 271.619766 58.549582 
L 271.567597 56.553898 
L 271.450436 54.558214 
L 271.240458 52.56253 
L 270.904182 50.566846 
L 270.404872 48.571162 
L 269.707196 46.575478 
L 268.784179 44.579793 
L 267.625799 42.584109 
L 266.247753 40.588425 
L 264.698213 38.592741 
L 263.060148 36.597057 
L 261.447247 34.601373 
L 259.992713 32.605689 
L 258.831986 30.610005 
L 258.082329 28.61432 
L 257.823471 26.618636 
L 286.190413 26.618636 
L 286.190413 26.618636 
L 285.931556 28.61432 
L 285.181898 30.610005 
L 284.021172 32.605689 
L 282.566637 34.601373 
L 280.953737 36.597057 
L 279.315672 38.592741 
L 277.766132 40.588425 
L 276.388085 42.584109 
L 275.229705 44.579793 
L 274.306688 46.575478 
L 273.609012 48.571162 
L 273.109703 50.566846 
L 272.773426 52.56253 
L 272.563449 54.558214 
L 272.446287 56.553898 
L 272.394118 58.549582 
L 272.385407 60.545266 
L 272.404421 62.54095 
L 272.440213 64.536635 
L 272.485516 66.532319 
L 272.535786 68.528003 
L 272.588464 70.523687 
L 272.642399 72.519371 
L 272.697356 74.515055 
L 272.75349 76.510739 
L 272.810791 78.506423 
L 272.868517 80.502107 
L 272.924766 82.497792 
L 272.976306 84.493476 
L 273.018794 86.48916 
L 273.047415 88.484844 
L 273.057822 90.480528 
L 273.047207 92.476212 
L 273.015218 94.471896 
L 272.964497 96.46758 
L 272.900691 98.463264 
L 272.831912 100.458949 
L 272.767729 102.454633 
L 272.717891 104.450317 
L 272.690943 106.446001 
L 272.692953 108.441685 
L 272.726486 110.437369 
L 272.789968 112.433053 
L 272.877546 114.428737 
L 272.979535 116.424421 
L 273.083479 118.420106 
L 273.175742 120.41579 
L 273.243426 122.411474 
L 273.276307 124.407158 
L 273.268402 126.402842 
L 273.218844 128.398526 
L 273.131867 130.39421 
L 273.015921 132.389894 
L 272.882127 134.385579 
L 272.742423 136.381263 
L 272.607807 138.376947 
L 272.486978 140.372631 
L 272.385581 142.368315 
L 272.306067 144.363999 
L 272.248055 146.359683 
L 272.209022 148.355367 
L 272.185122 150.351051 
L 272.171977 152.346736 
L 272.165335 154.34242 
L 272.161547 156.338104 
L 272.15785 158.333788 
L 272.152474 160.329472 
L 272.144589 162.325156 
L 272.134151 164.32084 
L 272.121671 166.316524 
L 272.10796 168.312208 
L 272.093903 170.307893 
L 272.080285 172.303577 
L 272.067692 174.299261 
L 272.056476 176.294945 
L 272.04679 178.290629 
L 272.038645 180.286313 
L 272.031996 182.281997 
L 272.026811 184.277681 
L 272.023162 186.273365 
L 272.021298 188.26905 
L 272.021751 190.264734 
L 272.025445 192.260418 
L 272.033824 194.256102 
L 272.048969 196.251786 
L 272.073652 198.24747 
L 272.111269 200.243154 
L 272.165593 202.238838 
L 272.240282 204.234522 
L 272.338149 206.230207 
L 272.460257 208.225891 
L 272.605002 210.221575 
L 272.767397 212.217259 
L 272.938829 214.212943 
L 273.107478 216.208627 
L 273.259488 218.204311 
L 273.380761 220.199995 
L 273.45909 222.19568 
L 273.48618 224.191364 
z
" clip-path="url(#p2f09e9795c)" style="fill: #1f77b4; fill-opacity: 0.3"/>
   </g>
   <g id="PolyCollection_5">
    <path d="M 329.923688 224.191364 
L 327.557965 224.191364 
L 327.577482 222.19568 
L 327.634132 220.199995 
L 327.72248 218.204311 
L 327.834433 216.208627 
L 327.960453 214.212943 
L 328.090885 212.217259 
L 328.217137 210.221575 
L 328.332518 208.225891 
L 328.432655 206.230207 
L 328.515487 204.234522 
L 328.580927 202.238838 
L 328.630343 200.243154 
L 328.665979 198.24747 
L 328.690431 196.251786 
L 328.706248 194.256102 
L 328.715672 192.260418 
L 328.720508 190.264734 
L 328.722094 188.26905 
L 328.721341 186.273365 
L 328.718795 184.277681 
L 328.714729 182.281997 
L 328.709227 180.286313 
L 328.702277 178.290629 
L 328.693853 176.294945 
L 328.684003 174.299261 
L 328.67291 172.303577 
L 328.66094 170.307893 
L 328.648641 168.312208 
L 328.636696 166.316524 
L 328.625815 164.32084 
L 328.616589 162.325156 
L 328.609294 160.329472 
L 328.603712 158.333788 
L 328.598965 156.338104 
L 328.593432 154.34242 
L 328.58476 152.346736 
L 328.570003 150.351051 
L 328.545905 148.355367 
L 328.509315 146.359683 
L 328.457706 144.363999 
L 328.389748 142.368315 
L 328.305837 140.372631 
L 328.208477 138.376947 
L 328.102398 136.381263 
L 327.994322 134.385579 
L 327.892341 132.389894 
L 327.804947 130.39421 
L 327.739864 128.398526 
L 327.702856 126.402842 
L 327.696776 124.407158 
L 327.721021 122.411474 
L 327.771539 120.41579 
L 327.841385 118.420106 
L 327.921714 116.424421 
L 328.003041 114.428737 
L 328.076516 112.433053 
L 328.135033 110.437369 
L 328.174005 108.441685 
L 328.191727 106.446001 
L 328.189337 104.450317 
L 328.170398 102.454633 
L 328.140216 100.458949 
L 328.104988 98.463264 
L 328.070905 96.46758 
L 328.04334 94.471896 
L 328.026225 92.476212 
L 328.021709 90.480528 
L 328.030121 88.484844 
L 328.050239 86.48916 
L 328.079765 84.493476 
L 328.1159 82.497792 
L 328.155895 80.502107 
L 328.197455 78.506423 
L 328.238942 76.510739 
L 328.279356 74.515055 
L 328.318126 72.519371 
L 328.354743 70.523687 
L 328.388302 68.528003 
L 328.416961 66.532319 
L 328.437319 64.536635 
L 328.443689 62.54095 
L 328.427274 60.545266 
L 328.375283 58.549582 
L 328.270141 56.553898 
L 328.089062 54.558214 
L 327.804363 52.56253 
L 327.384952 50.566846 
L 326.799386 48.571162 
L 326.020625 46.575478 
L 325.032251 44.579793 
L 323.835353 42.584109 
L 322.454779 40.588425 
L 320.943105 38.592741 
L 319.380686 36.597057 
L 317.870701 34.601373 
L 316.529042 32.605689 
L 315.470165 30.610005 
L 314.791201 28.61432 
L 314.557355 26.618636 
L 342.924298 26.618636 
L 342.924298 26.618636 
L 342.690452 28.61432 
L 342.011488 30.610005 
L 340.952611 32.605689 
L 339.610951 34.601373 
L 338.100967 36.597057 
L 336.538548 38.592741 
L 335.026873 40.588425 
L 333.6463 42.584109 
L 332.449402 44.579793 
L 331.461028 46.575478 
L 330.682267 48.571162 
L 330.096701 50.566846 
L 329.67729 52.56253 
L 329.392591 54.558214 
L 329.211512 56.553898 
L 329.10637 58.549582 
L 329.054379 60.545266 
L 329.037964 62.54095 
L 329.044334 64.536635 
L 329.064692 66.532319 
L 329.093351 68.528003 
L 329.12691 70.523687 
L 329.163527 72.519371 
L 329.202296 74.515055 
L 329.242711 76.510739 
L 329.284198 78.506423 
L 329.325757 80.502107 
L 329.365752 82.497792 
L 329.401888 84.493476 
L 329.431414 86.48916 
L 329.451532 88.484844 
L 329.459944 90.480528 
L 329.455428 92.476212 
L 329.438313 94.471896 
L 329.410748 96.46758 
L 329.376665 98.463264 
L 329.341437 100.458949 
L 329.311255 102.454633 
L 329.292316 104.450317 
L 329.289925 106.446001 
L 329.307648 108.441685 
L 329.34662 110.437369 
L 329.405137 112.433053 
L 329.478612 114.428737 
L 329.559939 116.424421 
L 329.640268 118.420106 
L 329.710114 120.41579 
L 329.760632 122.411474 
L 329.784877 124.407158 
L 329.778797 126.402842 
L 329.741789 128.398526 
L 329.676705 130.39421 
L 329.589312 132.389894 
L 329.487331 134.385579 
L 329.379255 136.381263 
L 329.273176 138.376947 
L 329.175815 140.372631 
L 329.091904 142.368315 
L 329.023947 144.363999 
L 328.972338 146.359683 
L 328.935748 148.355367 
L 328.91165 150.351051 
L 328.896893 152.346736 
L 328.888221 154.34242 
L 328.882688 156.338104 
L 328.877941 158.333788 
L 328.872359 160.329472 
L 328.865064 162.325156 
L 328.855838 164.32084 
L 328.844957 166.316524 
L 328.833012 168.312208 
L 328.820713 170.307893 
L 328.808743 172.303577 
L 328.79765 174.299261 
L 328.7878 176.294945 
L 328.779376 178.290629 
L 328.772426 180.286313 
L 328.766924 182.281997 
L 328.762858 184.277681 
L 328.760312 186.273365 
L 328.759559 188.26905 
L 328.761145 190.264734 
L 328.765981 192.260418 
L 328.775404 194.256102 
L 328.791222 196.251786 
L 328.815674 198.24747 
L 328.85131 200.243154 
L 328.900726 202.238838 
L 328.966166 204.234522 
L 329.048998 206.230207 
L 329.149135 208.225891 
L 329.264516 210.221575 
L 329.390768 212.217259 
L 329.5212 214.212943 
L 329.64722 216.208627 
L 329.759173 218.204311 
L 329.847521 220.199995 
L 329.90417 222.19568 
L 329.923688 224.191364 
z
" clip-path="url(#p2f09e9795c)" style="fill: #1f77b4; fill-opacity: 0.3"/>
   </g>
   <g id="PolyCollection_6">
    <path d="M 386.310258 224.191364 
L 384.639164 224.191364 
L 384.657023 222.19568 
L 384.708344 220.199995 
L 384.786821 218.204311 
L 384.883376 216.208627 
L 384.987876 214.212943 
L 385.090861 212.217259 
L 385.18486 210.221575 
L 385.265096 208.225891 
L 385.329533 206.230207 
L 385.378414 204.234522 
L 385.413537 202.238838 
L 385.437491 200.243154 
L 385.453019 198.24747 
L 385.462594 196.251786 
L 385.468206 194.256102 
L 385.47132 192.260418 
L 385.472923 190.264734 
L 385.473626 188.26905 
L 385.473763 186.273365 
L 385.473479 184.277681 
L 385.472789 182.281997 
L 385.471628 180.286313 
L 385.469887 178.290629 
L 385.467448 176.294945 
L 385.464227 174.299261 
L 385.460213 172.303577 
L 385.455505 170.307893 
L 385.450335 168.312208 
L 385.44506 166.316524 
L 385.440117 164.32084 
L 385.43594 162.325156 
L 385.432842 160.329472 
L 385.43088 158.333788 
L 385.429728 156.338104 
L 385.428555 154.34242 
L 385.425964 152.346736 
L 385.419974 150.351051 
L 385.408092 148.355367 
L 385.387512 146.359683 
L 385.355451 144.363999 
L 385.309653 142.368315 
L 385.249025 140.372631 
L 385.174291 138.376947 
L 385.0885 136.381263 
L 384.99719 134.385579 
L 384.908026 132.389894 
L 384.829865 130.39421 
L 384.771356 128.398526 
L 384.739346 126.402842 
L 384.737498 124.407158 
L 384.765463 122.411474 
L 384.81885 120.41579 
L 384.889996 118.420106 
L 384.969316 116.424421 
L 385.046901 114.428737 
L 385.113988 112.433053 
L 385.164039 110.437369 
L 385.193341 108.441685 
L 385.201121 106.446001 
L 385.189313 104.450317 
L 385.162067 102.454633 
L 385.125082 100.458949 
L 385.084814 98.463264 
L 385.047589 96.46758 
L 385.018736 94.471896 
L 385.001864 92.476212 
L 384.998445 90.480528 
L 385.007805 88.484844 
L 385.027553 86.48916 
L 385.054308 84.493476 
L 385.084542 82.497792 
L 385.115309 80.502107 
L 385.144683 78.506423 
L 385.171851 76.510739 
L 385.196904 74.515055 
L 385.220449 72.519371 
L 385.243175 70.523687 
L 385.265483 68.528003 
L 385.287178 66.532319 
L 385.307186 64.536635 
L 385.323171 62.54095 
L 385.330906 60.545266 
L 385.323273 58.549582 
L 385.288835 56.553898 
L 385.210099 54.558214 
L 385.061824 52.56253 
L 384.81005 50.566846 
L 384.412852 48.571162 
L 383.823878 46.575478 
L 382.999496 44.579793 
L 381.909513 42.584109 
L 380.550123 40.588425 
L 378.956225 38.592741 
L 377.209169 36.597057 
L 375.435944 34.601373 
L 373.797325 32.605689 
L 372.465396 30.610005 
L 371.594344 28.61432 
L 371.29124 26.618636 
L 399.658182 26.618636 
L 399.658182 26.618636 
L 399.355077 28.61432 
L 398.484025 30.610005 
L 397.152097 32.605689 
L 395.513477 34.601373 
L 393.740252 36.597057 
L 391.993197 38.592741 
L 390.399299 40.588425 
L 389.039908 42.584109 
L 387.949925 44.579793 
L 387.125544 46.575478 
L 386.53657 48.571162 
L 386.139372 50.566846 
L 385.887598 52.56253 
L 385.739322 54.558214 
L 385.660587 56.553898 
L 385.626149 58.549582 
L 385.618515 60.545266 
L 385.626251 62.54095 
L 385.642236 64.536635 
L 385.662244 66.532319 
L 385.683939 68.528003 
L 385.706246 70.523687 
L 385.728973 72.519371 
L 385.752517 74.515055 
L 385.77757 76.510739 
L 385.804739 78.506423 
L 385.834112 80.502107 
L 385.864879 82.497792 
L 385.895113 84.493476 
L 385.921868 86.48916 
L 385.941616 88.484844 
L 385.950977 90.480528 
L 385.947557 92.476212 
L 385.930686 94.471896 
L 385.901833 96.46758 
L 385.864607 98.463264 
L 385.824339 100.458949 
L 385.787355 102.454633 
L 385.760109 104.450317 
L 385.748301 106.446001 
L 385.756081 108.441685 
L 385.785382 110.437369 
L 385.835434 112.433053 
L 385.90252 114.428737 
L 385.980106 116.424421 
L 386.059426 118.420106 
L 386.130571 120.41579 
L 386.183959 122.411474 
L 386.211923 124.407158 
L 386.210075 126.402842 
L 386.178066 128.398526 
L 386.119556 130.39421 
L 386.041396 132.389894 
L 385.952231 134.385579 
L 385.860921 136.381263 
L 385.775131 138.376947 
L 385.700397 140.372631 
L 385.639769 142.368315 
L 385.593971 144.363999 
L 385.561909 146.359683 
L 385.541329 148.355367 
L 385.529448 150.351051 
L 385.523457 152.346736 
L 385.520866 154.34242 
L 385.519694 156.338104 
L 385.518541 158.333788 
L 385.51658 160.329472 
L 385.513481 162.325156 
L 385.509304 164.32084 
L 385.504361 166.316524 
L 385.499086 168.312208 
L 385.493916 170.307893 
L 385.489209 172.303577 
L 385.485194 174.299261 
L 385.481973 176.294945 
L 385.479535 178.290629 
L 385.477793 180.286313 
L 385.476632 182.281997 
L 385.475942 184.277681 
L 385.475658 186.273365 
L 385.475796 188.26905 
L 385.476498 190.264734 
L 385.478101 192.260418 
L 385.481215 194.256102 
L 385.486828 196.251786 
L 385.496402 198.24747 
L 385.51193 200.243154 
L 385.535884 202.238838 
L 385.571008 204.234522 
L 385.619889 206.230207 
L 385.684325 208.225891 
L 385.764562 210.221575 
L 385.858561 212.217259 
L 385.961545 214.212943 
L 386.066046 216.208627 
L 386.1626 218.204311 
L 386.241077 220.199995 
L 386.292398 222.19568 
L 386.310258 224.191364 
z
" clip-path="url(#p2f09e9795c)" style="fill: #1f77b4; fill-opacity: 0.3"/>
   </g>
   <g id="matplotlib.axis_1">
    <g id="xtick_1">
     <g id="line2d_1">
      <defs>
       <path id="ma3cc30d745" d="M 0 0 
L 0 3.5 
" style="stroke: #000000; stroke-width: 0.8"/>
      </defs>
      <g>
       <use xlink:href="#ma3cc30d745" x="101.805289" y="234.07" style="stroke: #000000; stroke-width: 0.8"/>
      </g>
     </g>
     <g id="text_1">
      <!-- C-P -->
      <g transform="translate(87.678024 253.987344) scale(0.17 -0.17)">
       <defs>
        <path id="DejaVuSans-43" d="M 4122 4306 
L 4122 3641 
Q 3803 3938 3442 4084 
Q 3081 4231 2675 4231 
Q 1875 4231 1450 3742 
Q 1025 3253 1025 2328 
Q 1025 1406 1450 917 
Q 1875 428 2675 428 
Q 3081 428 3442 575 
Q 3803 722 4122 1019 
L 4122 359 
Q 3791 134 3420 21 
Q 3050 -91 2638 -91 
Q 1578 -91 968 557 
Q 359 1206 359 2328 
Q 359 3453 968 4101 
Q 1578 4750 2638 4750 
Q 3056 4750 3426 4639 
Q 3797 4528 4122 4306 
z
" transform="scale(0.015625)"/>
        <path id="DejaVuSans-2d" d="M 313 2009 
L 1997 2009 
L 1997 1497 
L 313 1497 
L 313 2009 
z
" transform="scale(0.015625)"/>
        <path id="DejaVuSans-50" d="M 1259 4147 
L 1259 2394 
L 2053 2394 
Q 2494 2394 2734 2622 
Q 2975 2850 2975 3272 
Q 2975 3691 2734 3919 
Q 2494 4147 2053 4147 
L 1259 4147 
z
M 628 4666 
L 2053 4666 
Q 2838 4666 3239 4311 
Q 3641 3956 3641 3272 
Q 3641 2581 3239 2228 
Q 2838 1875 2053 1875 
L 1259 1875 
L 1259 0 
L 628 0 
L 628 4666 
z
" transform="scale(0.015625)"/>
       </defs>
       <use xlink:href="#DejaVuSans-43"/>
       <use xlink:href="#DejaVuSans-2d" x="69.824219"/>
       <use xlink:href="#DejaVuSans-50" x="105.908203"/>
      </g>
     </g>
    </g>
    <g id="xtick_2">
     <g id="line2d_2">
      <g>
       <use xlink:href="#ma3cc30d745" x="158.539174" y="234.07" style="stroke: #000000; stroke-width: 0.8"/>
      </g>
     </g>
     <g id="text_2">
      <!-- C-S -->
      <g transform="translate(144.14097 253.987344) scale(0.17 -0.17)">
       <defs>
        <path id="DejaVuSans-53" d="M 3425 4513 
L 3425 3897 
Q 3066 4069 2747 4153 
Q 2428 4238 2131 4238 
Q 1616 4238 1336 4038 
Q 1056 3838 1056 3469 
Q 1056 3159 1242 3001 
Q 1428 2844 1947 2747 
L 2328 2669 
Q 3034 2534 3370 2195 
Q 3706 1856 3706 1288 
Q 3706 609 3251 259 
Q 2797 -91 1919 -91 
Q 1588 -91 1214 -16 
Q 841 59 441 206 
L 441 856 
Q 825 641 1194 531 
Q 1563 422 1919 422 
Q 2459 422 2753 634 
Q 3047 847 3047 1241 
Q 3047 1584 2836 1778 
Q 2625 1972 2144 2069 
L 1759 2144 
Q 1053 2284 737 2584 
Q 422 2884 422 3419 
Q 422 4038 858 4394 
Q 1294 4750 2059 4750 
Q 2388 4750 2728 4690 
Q 3069 4631 3425 4513 
z
" transform="scale(0.015625)"/>
       </defs>
       <use xlink:href="#DejaVuSans-43"/>
       <use xlink:href="#DejaVuSans-2d" x="69.824219"/>
       <use xlink:href="#DejaVuSans-53" x="105.908203"/>
      </g>
     </g>
    </g>
    <g id="xtick_3">
     <g id="line2d_3">
      <g>
       <use xlink:href="#ma3cc30d745" x="215.273058" y="234.07" style="stroke: #000000; stroke-width: 0.8"/>
      </g>
     </g>
     <g id="text_3">
      <!-- P-C -->
      <g transform="translate(201.337042 253.987344) scale(0.17 -0.17)">
       <use xlink:href="#DejaVuSans-50"/>
       <use xlink:href="#DejaVuSans-2d" x="58.052734"/>
       <use xlink:href="#DejaVuSans-43" x="94.136719"/>
      </g>
     </g>
    </g>
    <g id="xtick_4">
     <g id="line2d_4">
      <g>
       <use xlink:href="#ma3cc30d745" x="272.006942" y="234.07" style="stroke: #000000; stroke-width: 0.8"/>
      </g>
     </g>
     <g id="text_4">
      <!-- P-S -->
      <g transform="translate(258.610145 253.987344) scale(0.17 -0.17)">
       <use xlink:href="#DejaVuSans-50"/>
       <use xlink:href="#DejaVuSans-2d" x="58.052734"/>
       <use xlink:href="#DejaVuSans-53" x="94.136719"/>
      </g>
     </g>
    </g>
    <g id="xtick_5">
     <g id="line2d_5">
      <g>
       <use xlink:href="#ma3cc30d745" x="328.740826" y="234.07" style="stroke: #000000; stroke-width: 0.8"/>
      </g>
     </g>
     <g id="text_5">
      <!-- S-C -->
      <g transform="translate(314.342623 253.987344) scale(0.17 -0.17)">
       <use xlink:href="#DejaVuSans-53"/>
       <use xlink:href="#DejaVuSans-2d" x="63.476562"/>
       <use xlink:href="#DejaVuSans-43" x="99.560547"/>
      </g>
     </g>
    </g>
    <g id="xtick_6">
     <g id="line2d_6">
      <g>
       <use xlink:href="#ma3cc30d745" x="385.474711" y="234.07" style="stroke: #000000; stroke-width: 0.8"/>
      </g>
     </g>
     <g id="text_6">
      <!-- S-P -->
      <g transform="translate(371.886664 253.987344) scale(0.17 -0.17)">
       <use xlink:href="#DejaVuSans-53"/>
       <use xlink:href="#DejaVuSans-2d" x="63.476562"/>
       <use xlink:href="#DejaVuSans-50" x="99.560547"/>
      </g>
     </g>
    </g>
    <g id="text_7">
     <!-- USA -->
     <g transform="translate(226.048984 274.440156) scale(0.17 -0.17)">
      <defs>
       <path id="DejaVuSans-55" d="M 556 4666 
L 1191 4666 
L 1191 1831 
Q 1191 1081 1462 751 
Q 1734 422 2344 422 
Q 2950 422 3222 751 
Q 3494 1081 3494 1831 
L 3494 4666 
L 4128 4666 
L 4128 1753 
Q 4128 841 3676 375 
Q 3225 -91 2344 -91 
Q 1459 -91 1007 375 
Q 556 841 556 1753 
L 556 4666 
z
" transform="scale(0.015625)"/>
       <path id="DejaVuSans-41" d="M 2188 4044 
L 1331 1722 
L 3047 1722 
L 2188 4044 
z
M 1831 4666 
L 2547 4666 
L 4325 0 
L 3669 0 
L 3244 1197 
L 1141 1197 
L 716 0 
L 50 0 
L 1831 4666 
z
" transform="scale(0.015625)"/>
      </defs>
      <use xlink:href="#DejaVuSans-55"/>
      <use xlink:href="#DejaVuSans-53" x="73.193359"/>
      <use xlink:href="#DejaVuSans-41" x="138.544922"/>
     </g>
    </g>
   </g>
   <g id="matplotlib.axis_2">
    <g id="ytick_1">
     <g id="line2d_7">
      <defs>
       <path id="mc809997f27" d="M 0 0 
L -3.5 0 
" style="stroke: #000000; stroke-width: 0.8"/>
      </defs>
      <g>
       <use xlink:href="#mc809997f27" x="72.02" y="224.191364" style="stroke: #000000; stroke-width: 0.8"/>
      </g>
     </g>
     <g id="text_8">
      <!-- 0.0 -->
      <g transform="translate(37.984688 230.650036) scale(0.17 -0.17)">
       <defs>
        <path id="DejaVuSans-30" d="M 2034 4250 
Q 1547 4250 1301 3770 
Q 1056 3291 1056 2328 
Q 1056 1369 1301 889 
Q 1547 409 2034 409 
Q 2525 409 2770 889 
Q 3016 1369 3016 2328 
Q 3016 3291 2770 3770 
Q 2525 4250 2034 4250 
z
M 2034 4750 
Q 2819 4750 3233 4129 
Q 3647 3509 3647 2328 
Q 3647 1150 3233 529 
Q 2819 -91 2034 -91 
Q 1250 -91 836 529 
Q 422 1150 422 2328 
Q 422 3509 836 4129 
Q 1250 4750 2034 4750 
z
" transform="scale(0.015625)"/>
        <path id="DejaVuSans-2e" d="M 684 794 
L 1344 794 
L 1344 0 
L 684 0 
L 684 794 
z
" transform="scale(0.015625)"/>
       </defs>
       <use xlink:href="#DejaVuSans-30"/>
       <use xlink:href="#DejaVuSans-2e" x="63.623047"/>
       <use xlink:href="#DejaVuSans-30" x="95.410156"/>
      </g>
     </g>
    </g>
    <g id="ytick_2">
     <g id="line2d_8">
      <g>
       <use xlink:href="#mc809997f27" x="72.02" y="184.676818" style="stroke: #000000; stroke-width: 0.8"/>
      </g>
     </g>
     <g id="text_9">
      <!-- 0.2 -->
      <g transform="translate(37.984688 191.13549) scale(0.17 -0.17)">
       <defs>
        <path id="DejaVuSans-32" d="M 1228 531 
L 3431 531 
L 3431 0 
L 469 0 
L 469 531 
Q 828 903 1448 1529 
Q 2069 2156 2228 2338 
Q 2531 2678 2651 2914 
Q 2772 3150 2772 3378 
Q 2772 3750 2511 3984 
Q 2250 4219 1831 4219 
Q 1534 4219 1204 4116 
Q 875 4013 500 3803 
L 500 4441 
Q 881 4594 1212 4672 
Q 1544 4750 1819 4750 
Q 2544 4750 2975 4387 
Q 3406 4025 3406 3419 
Q 3406 3131 3298 2873 
Q 3191 2616 2906 2266 
Q 2828 2175 2409 1742 
Q 1991 1309 1228 531 
z
" transform="scale(0.015625)"/>
       </defs>
       <use xlink:href="#DejaVuSans-30"/>
       <use xlink:href="#DejaVuSans-2e" x="63.623047"/>
       <use xlink:href="#DejaVuSans-32" x="95.410156"/>
      </g>
     </g>
    </g>
    <g id="ytick_3">
     <g id="line2d_9">
      <g>
       <use xlink:href="#mc809997f27" x="72.02" y="145.162273" style="stroke: #000000; stroke-width: 0.8"/>
      </g>
     </g>
     <g id="text_10">
      <!-- 0.4 -->
      <g transform="translate(37.984688 151.620945) scale(0.17 -0.17)">
       <defs>
        <path id="DejaVuSans-34" d="M 2419 4116 
L 825 1625 
L 2419 1625 
L 2419 4116 
z
M 2253 4666 
L 3047 4666 
L 3047 1625 
L 3713 1625 
L 3713 1100 
L 3047 1100 
L 3047 0 
L 2419 0 
L 2419 1100 
L 313 1100 
L 313 1709 
L 2253 4666 
z
" transform="scale(0.015625)"/>
       </defs>
       <use xlink:href="#DejaVuSans-30"/>
       <use xlink:href="#DejaVuSans-2e" x="63.623047"/>
       <use xlink:href="#DejaVuSans-34" x="95.410156"/>
      </g>
     </g>
    </g>
    <g id="ytick_4">
     <g id="line2d_10">
      <g>
       <use xlink:href="#mc809997f27" x="72.02" y="105.647727" style="stroke: #000000; stroke-width: 0.8"/>
      </g>
     </g>
     <g id="text_11">
      <!-- 0.6 -->
      <g transform="translate(37.984688 112.106399) scale(0.17 -0.17)">
       <defs>
        <path id="DejaVuSans-36" d="M 2113 2584 
Q 1688 2584 1439 2293 
Q 1191 2003 1191 1497 
Q 1191 994 1439 701 
Q 1688 409 2113 409 
Q 2538 409 2786 701 
Q 3034 994 3034 1497 
Q 3034 2003 2786 2293 
Q 2538 2584 2113 2584 
z
M 3366 4563 
L 3366 3988 
Q 3128 4100 2886 4159 
Q 2644 4219 2406 4219 
Q 1781 4219 1451 3797 
Q 1122 3375 1075 2522 
Q 1259 2794 1537 2939 
Q 1816 3084 2150 3084 
Q 2853 3084 3261 2657 
Q 3669 2231 3669 1497 
Q 3669 778 3244 343 
Q 2819 -91 2113 -91 
Q 1303 -91 875 529 
Q 447 1150 447 2328 
Q 447 3434 972 4092 
Q 1497 4750 2381 4750 
Q 2619 4750 2861 4703 
Q 3103 4656 3366 4563 
z
" transform="scale(0.015625)"/>
       </defs>
       <use xlink:href="#DejaVuSans-30"/>
       <use xlink:href="#DejaVuSans-2e" x="63.623047"/>
       <use xlink:href="#DejaVuSans-36" x="95.410156"/>
      </g>
     </g>
    </g>
    <g id="ytick_5">
     <g id="line2d_11">
      <g>
       <use xlink:href="#mc809997f27" x="72.02" y="66.133182" style="stroke: #000000; stroke-width: 0.8"/>
      </g>
     </g>
     <g id="text_12">
      <!-- 0.8 -->
      <g transform="translate(37.984688 72.591854) scale(0.17 -0.17)">
       <defs>
        <path id="DejaVuSans-38" d="M 2034 2216 
Q 1584 2216 1326 1975 
Q 1069 1734 1069 1313 
Q 1069 891 1326 650 
Q 1584 409 2034 409 
Q 2484 409 2743 651 
Q 3003 894 3003 1313 
Q 3003 1734 2745 1975 
Q 2488 2216 2034 2216 
z
M 1403 2484 
Q 997 2584 770 2862 
Q 544 3141 544 3541 
Q 544 4100 942 4425 
Q 1341 4750 2034 4750 
Q 2731 4750 3128 4425 
Q 3525 4100 3525 3541 
Q 3525 3141 3298 2862 
Q 3072 2584 2669 2484 
Q 3125 2378 3379 2068 
Q 3634 1759 3634 1313 
Q 3634 634 3220 271 
Q 2806 -91 2034 -91 
Q 1263 -91 848 271 
Q 434 634 434 1313 
Q 434 1759 690 2068 
Q 947 2378 1403 2484 
z
M 1172 3481 
Q 1172 3119 1398 2916 
Q 1625 2713 2034 2713 
Q 2441 2713 2670 2916 
Q 2900 3119 2900 3481 
Q 2900 3844 2670 4047 
Q 2441 4250 2034 4250 
Q 1625 4250 1398 4047 
Q 1172 3844 1172 3481 
z
" transform="scale(0.015625)"/>
       </defs>
       <use xlink:href="#DejaVuSans-30"/>
       <use xlink:href="#DejaVuSans-2e" x="63.623047"/>
       <use xlink:href="#DejaVuSans-38" x="95.410156"/>
      </g>
     </g>
    </g>
    <g id="ytick_6">
     <g id="line2d_12">
      <g>
       <use xlink:href="#mc809997f27" x="72.02" y="26.618636" style="stroke: #000000; stroke-width: 0.8"/>
      </g>
     </g>
     <g id="text_13">
      <!-- 1.0 -->
      <g transform="translate(37.984688 33.077308) scale(0.17 -0.17)">
       <defs>
        <path id="DejaVuSans-31" d="M 794 531 
L 1825 531 
L 1825 4091 
L 703 3866 
L 703 4441 
L 1819 4666 
L 2450 4666 
L 2450 531 
L 3481 531 
L 3481 0 
L 794 0 
L 794 531 
z
" transform="scale(0.015625)"/>
       </defs>
       <use xlink:href="#DejaVuSans-31"/>
       <use xlink:href="#DejaVuSans-2e" x="63.623047"/>
       <use xlink:href="#DejaVuSans-30" x="95.410156"/>
      </g>
     </g>
    </g>
    <g id="text_14">
     <!-- Jaccard similarity -->
     <g transform="translate(30.449219 198.340312) rotate(-90) scale(0.17 -0.17)">
      <defs>
       <path id="DejaVuSans-4a" d="M 628 4666 
L 1259 4666 
L 1259 325 
Q 1259 -519 939 -900 
Q 619 -1281 -91 -1281 
L -331 -1281 
L -331 -750 
L -134 -750 
Q 284 -750 456 -515 
Q 628 -281 628 325 
L 628 4666 
z
" transform="scale(0.015625)"/>
       <path id="DejaVuSans-61" d="M 2194 1759 
Q 1497 1759 1228 1600 
Q 959 1441 959 1056 
Q 959 750 1161 570 
Q 1363 391 1709 391 
Q 2188 391 2477 730 
Q 2766 1069 2766 1631 
L 2766 1759 
L 2194 1759 
z
M 3341 1997 
L 3341 0 
L 2766 0 
L 2766 531 
Q 2569 213 2275 61 
Q 1981 -91 1556 -91 
Q 1019 -91 701 211 
Q 384 513 384 1019 
Q 384 1609 779 1909 
Q 1175 2209 1959 2209 
L 2766 2209 
L 2766 2266 
Q 2766 2663 2505 2880 
Q 2244 3097 1772 3097 
Q 1472 3097 1187 3025 
Q 903 2953 641 2809 
L 641 3341 
Q 956 3463 1253 3523 
Q 1550 3584 1831 3584 
Q 2591 3584 2966 3190 
Q 3341 2797 3341 1997 
z
" transform="scale(0.015625)"/>
       <path id="DejaVuSans-63" d="M 3122 3366 
L 3122 2828 
Q 2878 2963 2633 3030 
Q 2388 3097 2138 3097 
Q 1578 3097 1268 2742 
Q 959 2388 959 1747 
Q 959 1106 1268 751 
Q 1578 397 2138 397 
Q 2388 397 2633 464 
Q 2878 531 3122 666 
L 3122 134 
Q 2881 22 2623 -34 
Q 2366 -91 2075 -91 
Q 1284 -91 818 406 
Q 353 903 353 1747 
Q 353 2603 823 3093 
Q 1294 3584 2113 3584 
Q 2378 3584 2631 3529 
Q 2884 3475 3122 3366 
z
" transform="scale(0.015625)"/>
       <path id="DejaVuSans-72" d="M 2631 2963 
Q 2534 3019 2420 3045 
Q 2306 3072 2169 3072 
Q 1681 3072 1420 2755 
Q 1159 2438 1159 1844 
L 1159 0 
L 581 0 
L 581 3500 
L 1159 3500 
L 1159 2956 
Q 1341 3275 1631 3429 
Q 1922 3584 2338 3584 
Q 2397 3584 2469 3576 
Q 2541 3569 2628 3553 
L 2631 2963 
z
" transform="scale(0.015625)"/>
       <path id="DejaVuSans-64" d="M 2906 2969 
L 2906 4863 
L 3481 4863 
L 3481 0 
L 2906 0 
L 2906 525 
Q 2725 213 2448 61 
Q 2172 -91 1784 -91 
Q 1150 -91 751 415 
Q 353 922 353 1747 
Q 353 2572 751 3078 
Q 1150 3584 1784 3584 
Q 2172 3584 2448 3432 
Q 2725 3281 2906 2969 
z
M 947 1747 
Q 947 1113 1208 752 
Q 1469 391 1925 391 
Q 2381 391 2643 752 
Q 2906 1113 2906 1747 
Q 2906 2381 2643 2742 
Q 2381 3103 1925 3103 
Q 1469 3103 1208 2742 
Q 947 2381 947 1747 
z
" transform="scale(0.015625)"/>
       <path id="DejaVuSans-20" transform="scale(0.015625)"/>
       <path id="DejaVuSans-73" d="M 2834 3397 
L 2834 2853 
Q 2591 2978 2328 3040 
Q 2066 3103 1784 3103 
Q 1356 3103 1142 2972 
Q 928 2841 928 2578 
Q 928 2378 1081 2264 
Q 1234 2150 1697 2047 
L 1894 2003 
Q 2506 1872 2764 1633 
Q 3022 1394 3022 966 
Q 3022 478 2636 193 
Q 2250 -91 1575 -91 
Q 1294 -91 989 -36 
Q 684 19 347 128 
L 347 722 
Q 666 556 975 473 
Q 1284 391 1588 391 
Q 1994 391 2212 530 
Q 2431 669 2431 922 
Q 2431 1156 2273 1281 
Q 2116 1406 1581 1522 
L 1381 1569 
Q 847 1681 609 1914 
Q 372 2147 372 2553 
Q 372 3047 722 3315 
Q 1072 3584 1716 3584 
Q 2034 3584 2315 3537 
Q 2597 3491 2834 3397 
z
" transform="scale(0.015625)"/>
       <path id="DejaVuSans-69" d="M 603 3500 
L 1178 3500 
L 1178 0 
L 603 0 
L 603 3500 
z
M 603 4863 
L 1178 4863 
L 1178 4134 
L 603 4134 
L 603 4863 
z
" transform="scale(0.015625)"/>
       <path id="DejaVuSans-6d" d="M 3328 2828 
Q 3544 3216 3844 3400 
Q 4144 3584 4550 3584 
Q 5097 3584 5394 3201 
Q 5691 2819 5691 2113 
L 5691 0 
L 5113 0 
L 5113 2094 
Q 5113 2597 4934 2840 
Q 4756 3084 4391 3084 
Q 3944 3084 3684 2787 
Q 3425 2491 3425 1978 
L 3425 0 
L 2847 0 
L 2847 2094 
Q 2847 2600 2669 2842 
Q 2491 3084 2119 3084 
Q 1678 3084 1418 2786 
Q 1159 2488 1159 1978 
L 1159 0 
L 581 0 
L 581 3500 
L 1159 3500 
L 1159 2956 
Q 1356 3278 1631 3431 
Q 1906 3584 2284 3584 
Q 2666 3584 2933 3390 
Q 3200 3197 3328 2828 
z
" transform="scale(0.015625)"/>
       <path id="DejaVuSans-6c" d="M 603 4863 
L 1178 4863 
L 1178 0 
L 603 0 
L 603 4863 
z
" transform="scale(0.015625)"/>
       <path id="DejaVuSans-74" d="M 1172 4494 
L 1172 3500 
L 2356 3500 
L 2356 3053 
L 1172 3053 
L 1172 1153 
Q 1172 725 1289 603 
Q 1406 481 1766 481 
L 2356 481 
L 2356 0 
L 1766 0 
Q 1100 0 847 248 
Q 594 497 594 1153 
L 594 3053 
L 172 3053 
L 172 3500 
L 594 3500 
L 594 4494 
L 1172 4494 
z
" transform="scale(0.015625)"/>
       <path id="DejaVuSans-79" d="M 2059 -325 
Q 1816 -950 1584 -1140 
Q 1353 -1331 966 -1331 
L 506 -1331 
L 506 -850 
L 844 -850 
Q 1081 -850 1212 -737 
Q 1344 -625 1503 -206 
L 1606 56 
L 191 3500 
L 800 3500 
L 1894 763 
L 2988 3500 
L 3597 3500 
L 2059 -325 
z
" transform="scale(0.015625)"/>
      </defs>
      <use xlink:href="#DejaVuSans-4a"/>
      <use xlink:href="#DejaVuSans-61" x="29.492188"/>
      <use xlink:href="#DejaVuSans-63" x="90.771484"/>
      <use xlink:href="#DejaVuSans-63" x="145.751953"/>
      <use xlink:href="#DejaVuSans-61" x="200.732422"/>
      <use xlink:href="#DejaVuSans-72" x="262.011719"/>
      <use xlink:href="#DejaVuSans-64" x="301.375"/>
      <use xlink:href="#DejaVuSans-20" x="364.851562"/>
      <use xlink:href="#DejaVuSans-73" x="396.638672"/>
      <use xlink:href="#DejaVuSans-69" x="448.738281"/>
      <use xlink:href="#DejaVuSans-6d" x="476.521484"/>
      <use xlink:href="#DejaVuSans-69" x="573.933594"/>
      <use xlink:href="#DejaVuSans-6c" x="601.716797"/>
      <use xlink:href="#DejaVuSans-61" x="629.5"/>
      <use xlink:href="#DejaVuSans-72" x="690.779297"/>
      <use xlink:href="#DejaVuSans-69" x="731.892578"/>
      <use xlink:href="#DejaVuSans-74" x="759.675781"/>
      <use xlink:href="#DejaVuSans-79" x="798.884766"/>
     </g>
    </g>
   </g>
   <g id="LineCollection_1">
    <path d="M 94.713554 26.618636 
L 108.897025 26.618636 
" clip-path="url(#p2f09e9795c)" style="fill: none; stroke: #1f77b4; stroke-width: 1.5"/>
    <path d="M 151.447438 26.618636 
L 165.630909 26.618636 
" clip-path="url(#p2f09e9795c)" style="fill: none; stroke: #1f77b4; stroke-width: 1.5"/>
    <path d="M 208.181322 26.618636 
L 222.364793 26.618636 
" clip-path="url(#p2f09e9795c)" style="fill: none; stroke: #1f77b4; stroke-width: 1.5"/>
    <path d="M 264.915207 26.618636 
L 279.098678 26.618636 
" clip-path="url(#p2f09e9795c)" style="fill: none; stroke: #1f77b4; stroke-width: 1.5"/>
    <path d="M 321.649091 26.618636 
L 335.832562 26.618636 
" clip-path="url(#p2f09e9795c)" style="fill: none; stroke: #1f77b4; stroke-width: 1.5"/>
    <path d="M 378.382975 26.618636 
L 392.566446 26.618636 
" clip-path="url(#p2f09e9795c)" style="fill: none; stroke: #1f77b4; stroke-width: 1.5"/>
   </g>
   <g id="LineCollection_2">
    <path d="M 94.713554 224.191364 
L 108.897025 224.191364 
" clip-path="url(#p2f09e9795c)" style="fill: none; stroke: #1f77b4; stroke-width: 1.5"/>
    <path d="M 151.447438 224.191364 
L 165.630909 224.191364 
" clip-path="url(#p2f09e9795c)" style="fill: none; stroke: #1f77b4; stroke-width: 1.5"/>
    <path d="M 208.181322 224.191364 
L 222.364793 224.191364 
" clip-path="url(#p2f09e9795c)" style="fill: none; stroke: #1f77b4; stroke-width: 1.5"/>
    <path d="M 264.915207 224.191364 
L 279.098678 224.191364 
" clip-path="url(#p2f09e9795c)" style="fill: none; stroke: #1f77b4; stroke-width: 1.5"/>
    <path d="M 321.649091 224.191364 
L 335.832562 224.191364 
" clip-path="url(#p2f09e9795c)" style="fill: none; stroke: #1f77b4; stroke-width: 1.5"/>
    <path d="M 378.382975 224.191364 
L 392.566446 224.191364 
" clip-path="url(#p2f09e9795c)" style="fill: none; stroke: #1f77b4; stroke-width: 1.5"/>
   </g>
   <g id="LineCollection_3">
    <path d="M 101.805289 224.191364 
L 101.805289 26.618636 
" clip-path="url(#p2f09e9795c)" style="fill: none; stroke: #1f77b4; stroke-width: 1.5"/>
    <path d="M 158.539174 224.191364 
L 158.539174 26.618636 
" clip-path="url(#p2f09e9795c)" style="fill: none; stroke: #1f77b4; stroke-width: 1.5"/>
    <path d="M 215.273058 224.191364 
L 215.273058 26.618636 
" clip-path="url(#p2f09e9795c)" style="fill: none; stroke: #1f77b4; stroke-width: 1.5"/>
    <path d="M 272.006942 224.191364 
L 272.006942 26.618636 
" clip-path="url(#p2f09e9795c)" style="fill: none; stroke: #1f77b4; stroke-width: 1.5"/>
    <path d="M 328.740826 224.191364 
L 328.740826 26.618636 
" clip-path="url(#p2f09e9795c)" style="fill: none; stroke: #1f77b4; stroke-width: 1.5"/>
    <path d="M 385.474711 224.191364 
L 385.474711 26.618636 
" clip-path="url(#p2f09e9795c)" style="fill: none; stroke: #1f77b4; stroke-width: 1.5"/>
   </g>
   <g id="LineCollection_4">
    <path d="M 94.713554 26.618636 
L 108.897025 26.618636 
" clip-path="url(#p2f09e9795c)" style="fill: none; stroke: #1f77b4; stroke-width: 1.5"/>
    <path d="M 151.447438 26.618636 
L 165.630909 26.618636 
" clip-path="url(#p2f09e9795c)" style="fill: none; stroke: #1f77b4; stroke-width: 1.5"/>
    <path d="M 208.181322 26.618636 
L 222.364793 26.618636 
" clip-path="url(#p2f09e9795c)" style="fill: none; stroke: #1f77b4; stroke-width: 1.5"/>
    <path d="M 264.915207 26.618636 
L 279.098678 26.618636 
" clip-path="url(#p2f09e9795c)" style="fill: none; stroke: #1f77b4; stroke-width: 1.5"/>
    <path d="M 321.649091 26.618636 
L 335.832562 26.618636 
" clip-path="url(#p2f09e9795c)" style="fill: none; stroke: #1f77b4; stroke-width: 1.5"/>
    <path d="M 378.382975 26.618636 
L 392.566446 26.618636 
" clip-path="url(#p2f09e9795c)" style="fill: none; stroke: #1f77b4; stroke-width: 1.5"/>
   </g>
   <g id="patch_3">
    <path d="M 72.02 234.07 
L 72.02 16.74 
" style="fill: none; stroke: #000000; stroke-width: 0.8; stroke-linejoin: miter; stroke-linecap: square"/>
   </g>
   <g id="patch_4">
    <path d="M 415.26 234.07 
L 415.26 16.74 
" style="fill: none; stroke: #000000; stroke-width: 0.8; stroke-linejoin: miter; stroke-linecap: square"/>
   </g>
   <g id="patch_5">
    <path d="M 72.02 234.07 
L 415.26 234.07 
" style="fill: none; stroke: #000000; stroke-width: 0.8; stroke-linejoin: miter; stroke-linecap: square"/>
   </g>
   <g id="patch_6">
    <path d="M 72.02 16.74 
L 415.26 16.74 
" style="fill: none; stroke: #000000; stroke-width: 0.8; stroke-linejoin: miter; stroke-linecap: square"/>
   </g>
  </g>
  <g id="axes_2">
   <g id="patch_7">
    <path d="M 72.02 513.7 
L 415.26 513.7 
L 415.26 296.37 
L 72.02 296.37 
z
" style="fill: #ffffff"/>
   </g>
   <g id="PolyCollection_7">
    <path d="M 104.093227 503.821364 
L 99.517351 503.821364 
L 99.53814 501.82568 
L 99.601413 499.829995 
L 99.703444 497.834311 
L 99.83844 495.838627 
L 99.999065 493.842943 
L 100.177079 491.847259 
L 100.364011 489.851575 
L 100.55179 487.855891 
L 100.733268 485.860207 
L 100.902598 483.864522 
L 101.055433 481.868838 
L 101.18897 479.873154 
L 101.30184 477.87747 
L 101.393901 475.881786 
L 101.465968 473.886102 
L 101.519519 471.890418 
L 101.556424 469.894734 
L 101.578713 467.89905 
L 101.588401 465.903365 
L 101.587374 463.907681 
L 101.57734 461.911997 
L 101.559811 459.916313 
L 101.536126 457.920629 
L 101.507484 455.924945 
L 101.474962 453.929261 
L 101.439533 451.933577 
L 101.402043 449.937893 
L 101.363161 447.942208 
L 101.323313 445.946524 
L 101.282584 443.95084 
L 101.240643 441.955156 
L 101.196667 439.959472 
L 101.149333 437.963788 
L 101.096856 435.968104 
L 101.037114 433.97242 
L 100.967853 431.976736 
L 100.886959 429.981051 
L 100.792787 427.985367 
L 100.684498 425.989683 
L 100.56236 423.993999 
L 100.42798 421.998315 
L 100.284394 420.002631 
L 100.136007 418.006947 
L 99.988348 416.011263 
L 99.847664 414.015579 
L 99.72037 412.019894 
L 99.61243 410.02421 
L 99.528733 408.028526 
L 99.472548 406.032842 
L 99.445136 404.037158 
L 99.445571 402.041474 
L 99.470811 400.04579 
L 99.516008 398.050106 
L 99.575019 396.054421 
L 99.641072 394.058737 
L 99.70747 392.063053 
L 99.768281 390.067369 
L 99.8189 388.071685 
L 99.856431 386.076001 
L 99.879859 384.080317 
L 99.889989 382.084633 
L 99.889188 380.088949 
L 99.880978 378.093264 
L 99.869542 376.09758 
L 99.859204 374.101896 
L 99.853971 372.106212 
L 99.857153 370.110528 
L 99.871115 368.114844 
L 99.897155 366.11916 
L 99.935493 364.123476 
L 99.985335 362.127792 
L 100.04497 360.132107 
L 100.111867 358.136423 
L 100.182709 356.140739 
L 100.253363 354.145055 
L 100.31876 352.149371 
L 100.372709 350.153687 
L 100.407662 348.158003 
L 100.414494 346.162319 
L 100.382352 344.166635 
L 100.298663 342.17095 
L 100.149355 340.175266 
L 99.919393 338.179582 
L 99.593648 336.183898 
L 99.15813 334.188214 
L 98.601545 332.19253 
L 97.917071 330.196846 
L 97.104202 328.201162 
L 96.170429 326.205478 
L 95.132515 324.209793 
L 94.017091 322.214109 
L 92.860363 320.218425 
L 91.706779 318.222741 
L 90.606644 316.227057 
L 89.612813 314.231373 
L 88.776723 312.235689 
L 88.144196 310.240005 
L 87.751447 308.24432 
L 87.621818 306.248636 
L 115.98876 306.248636 
L 115.98876 306.248636 
L 115.859131 308.24432 
L 115.466383 310.240005 
L 114.833855 312.235689 
L 113.997766 314.231373 
L 113.003934 316.227057 
L 111.9038 318.222741 
L 110.750216 320.218425 
L 109.593488 322.214109 
L 108.478064 324.209793 
L 107.44015 326.205478 
L 106.506377 328.201162 
L 105.693508 330.196846 
L 105.009034 332.19253 
L 104.452449 334.188214 
L 104.016931 336.183898 
L 103.691185 338.179582 
L 103.461224 340.175266 
L 103.311916 342.17095 
L 103.228226 344.166635 
L 103.196085 346.162319 
L 103.202916 348.158003 
L 103.237869 350.153687 
L 103.291818 352.149371 
L 103.357216 354.145055 
L 103.42787 356.140739 
L 103.498712 358.136423 
L 103.565608 360.132107 
L 103.625244 362.127792 
L 103.675085 364.123476 
L 103.713423 366.11916 
L 103.739464 368.114844 
L 103.753426 370.110528 
L 103.756607 372.106212 
L 103.751374 374.101896 
L 103.741037 376.09758 
L 103.7296 378.093264 
L 103.721391 380.088949 
L 103.72059 382.084633 
L 103.730719 384.080317 
L 103.754147 386.076001 
L 103.791679 388.071685 
L 103.842297 390.067369 
L 103.903108 392.063053 
L 103.969507 394.058737 
L 104.035559 396.054421 
L 104.094571 398.050106 
L 104.139767 400.04579 
L 104.165008 402.041474 
L 104.165443 404.037158 
L 104.138031 406.032842 
L 104.081846 408.028526 
L 103.998149 410.02421 
L 103.890208 412.019894 
L 103.762914 414.015579 
L 103.62223 416.011263 
L 103.474572 418.006947 
L 103.326185 420.002631 
L 103.182599 421.998315 
L 103.048218 423.993999 
L 102.926081 425.989683 
L 102.817791 427.985367 
L 102.72362 429.981051 
L 102.642726 431.976736 
L 102.573464 433.97242 
L 102.513722 435.968104 
L 102.461245 437.963788 
L 102.413911 439.959472 
L 102.369936 441.955156 
L 102.327994 443.95084 
L 102.287266 445.946524 
L 102.247417 447.942208 
L 102.208536 449.937893 
L 102.171045 451.933577 
L 102.135617 453.929261 
L 102.103095 455.924945 
L 102.074452 457.920629 
L 102.050768 459.916313 
L 102.033239 461.911997 
L 102.023205 463.907681 
L 102.022178 465.903365 
L 102.031865 467.89905 
L 102.054154 469.894734 
L 102.091059 471.890418 
L 102.144611 473.886102 
L 102.216677 475.881786 
L 102.308739 477.87747 
L 102.421608 479.873154 
L 102.555145 481.868838 
L 102.707981 483.864522 
L 102.87731 485.860207 
L 103.058789 487.855891 
L 103.246567 489.851575 
L 103.433499 491.847259 
L 103.611514 493.842943 
L 103.772139 495.838627 
L 103.907135 497.834311 
L 104.009166 499.829995 
L 104.072438 501.82568 
L 104.093227 503.821364 
z
" clip-path="url(#p3dcd04e367)" style="fill: #1f77b4; fill-opacity: 0.3"/>
   </g>
   <g id="PolyCollection_8">
    <path d="M 165.01983 503.821364 
L 152.058517 503.821364 
L 152.095316 501.82568 
L 152.209782 499.829995 
L 152.397439 497.834311 
L 152.651192 495.838627 
L 152.961741 493.842943 
L 153.318109 491.847259 
L 153.708238 489.851575 
L 154.119623 487.855891 
L 154.539922 485.860207 
L 154.957506 483.864522 
L 155.361916 481.868838 
L 155.744212 479.873154 
L 156.097193 477.87747 
L 156.41549 475.881786 
L 156.695557 473.886102 
L 156.935554 471.890418 
L 157.135165 469.894734 
L 157.295368 467.89905 
L 157.418168 465.903365 
L 157.506337 463.907681 
L 157.563157 461.911997 
L 157.592187 459.916313 
L 157.597059 457.920629 
L 157.581304 455.924945 
L 157.548216 453.929261 
L 157.500742 451.933577 
L 157.441409 449.937893 
L 157.372276 447.942208 
L 157.294913 445.946524 
L 157.210413 443.95084 
L 157.11943 441.955156 
L 157.022244 439.959472 
L 156.91885 437.963788 
L 156.809082 435.968104 
L 156.692737 433.97242 
L 156.569729 431.976736 
L 156.440224 429.981051 
L 156.304772 427.985367 
L 156.164409 425.989683 
L 156.020722 423.993999 
L 155.875861 421.998315 
L 155.732499 420.002631 
L 155.593729 418.006947 
L 155.462923 416.011263 
L 155.343528 414.015579 
L 155.238854 412.019894 
L 155.151847 410.02421 
L 155.084875 408.028526 
L 155.03955 406.032842 
L 155.016609 404.037158 
L 155.015849 402.041474 
L 155.036147 400.04579 
L 155.075544 398.050106 
L 155.131396 396.054421 
L 155.200574 394.058737 
L 155.279695 392.063053 
L 155.365364 390.067369 
L 155.454395 388.071685 
L 155.544009 386.076001 
L 155.631978 384.080317 
L 155.716701 382.084633 
L 155.797231 380.088949 
L 155.873226 378.093264 
L 155.944846 376.09758 
L 156.012605 374.101896 
L 156.077188 372.106212 
L 156.139247 370.110528 
L 156.199193 368.114844 
L 156.256994 366.11916 
L 156.311981 364.123476 
L 156.362692 362.127792 
L 156.406737 360.132107 
L 156.440704 358.136423 
L 156.46011 356.140739 
L 156.459405 354.145055 
L 156.43203 352.149371 
L 156.370549 350.153687 
L 156.26685 348.158003 
L 156.11244 346.162319 
L 155.898814 344.166635 
L 155.617924 342.17095 
L 155.262709 340.175266 
L 154.827697 338.179582 
L 154.309624 336.183898 
L 153.708047 334.188214 
L 153.025895 332.19253 
L 152.269911 330.196846 
L 151.450923 328.201162 
L 150.583899 326.205478 
L 149.687748 324.209793 
L 148.784833 322.214109 
L 147.900223 320.218425 
L 147.060666 318.222741 
L 146.293377 316.227057 
L 145.624684 314.231373 
L 145.078629 312.235689 
L 144.675638 310.240005 
L 144.43135 308.24432 
L 144.355702 306.248636 
L 172.722645 306.248636 
L 172.722645 306.248636 
L 172.646997 308.24432 
L 172.402709 310.240005 
L 171.999718 312.235689 
L 171.453663 314.231373 
L 170.78497 316.227057 
L 170.017681 318.222741 
L 169.178124 320.218425 
L 168.293514 322.214109 
L 167.3906 324.209793 
L 166.494448 326.205478 
L 165.627424 328.201162 
L 164.808436 330.196846 
L 164.052452 332.19253 
L 163.3703 334.188214 
L 162.768723 336.183898 
L 162.25065 338.179582 
L 161.815638 340.175266 
L 161.460423 342.17095 
L 161.179533 344.166635 
L 160.965907 346.162319 
L 160.811497 348.158003 
L 160.707798 350.153687 
L 160.646317 352.149371 
L 160.618942 354.145055 
L 160.618237 356.140739 
L 160.637643 358.136423 
L 160.67161 360.132107 
L 160.715655 362.127792 
L 160.766366 364.123476 
L 160.821353 366.11916 
L 160.879154 368.114844 
L 160.939101 370.110528 
L 161.00116 372.106212 
L 161.065742 374.101896 
L 161.133501 376.09758 
L 161.205121 378.093264 
L 161.281116 380.088949 
L 161.361646 382.084633 
L 161.44637 384.080317 
L 161.534338 386.076001 
L 161.623952 388.071685 
L 161.712983 390.067369 
L 161.798652 392.063053 
L 161.877773 394.058737 
L 161.946951 396.054421 
L 162.002803 398.050106 
L 162.0422 400.04579 
L 162.062498 402.041474 
L 162.061738 404.037158 
L 162.038797 406.032842 
L 161.993472 408.028526 
L 161.9265 410.02421 
L 161.839493 412.019894 
L 161.734819 414.015579 
L 161.615424 416.011263 
L 161.484618 418.006947 
L 161.345849 420.002631 
L 161.202486 421.998315 
L 161.057625 423.993999 
L 160.913938 425.989683 
L 160.773575 427.985367 
L 160.638123 429.981051 
L 160.508618 431.976736 
L 160.38561 433.97242 
L 160.269266 435.968104 
L 160.159497 437.963788 
L 160.056103 439.959472 
L 159.958917 441.955156 
L 159.867934 443.95084 
L 159.783435 445.946524 
L 159.706071 447.942208 
L 159.636938 449.937893 
L 159.577605 451.933577 
L 159.530131 453.929261 
L 159.497043 455.924945 
L 159.481288 457.920629 
L 159.48616 459.916313 
L 159.51519 461.911997 
L 159.57201 463.907681 
L 159.660179 465.903365 
L 159.782979 467.89905 
L 159.943182 469.894734 
L 160.142794 471.890418 
L 160.38279 473.886102 
L 160.662857 475.881786 
L 160.981154 477.87747 
L 161.334135 479.873154 
L 161.716431 481.868838 
L 162.120841 483.864522 
L 162.538425 485.860207 
L 162.958724 487.855891 
L 163.370109 489.851575 
L 163.760238 491.847259 
L 164.116606 493.842943 
L 164.427155 495.838627 
L 164.680908 497.834311 
L 164.868565 499.829995 
L 164.983031 501.82568 
L 165.01983 503.821364 
z
" clip-path="url(#p3dcd04e367)" style="fill: #1f77b4; fill-opacity: 0.3"/>
   </g>
   <g id="PolyCollection_9">
    <path d="M 217.243239 503.821364 
L 213.302877 503.821364 
L 213.322135 501.82568 
L 213.378811 499.829995 
L 213.469635 497.834311 
L 213.589508 495.838627 
L 213.731968 493.842943 
L 213.889769 491.847259 
L 214.055478 489.851575 
L 214.222036 487.855891 
L 214.383228 485.860207 
L 214.534007 483.864522 
L 214.67067 481.868838 
L 214.790888 479.873154 
L 214.893602 477.87747 
L 214.978837 475.881786 
L 215.047454 473.886102 
L 215.100891 471.890418 
L 215.140916 469.894734 
L 215.169421 467.89905 
L 215.188261 465.903365 
L 215.199148 463.907681 
L 215.203589 461.911997 
L 215.202868 459.916313 
L 215.198045 457.920629 
L 215.189975 455.924945 
L 215.17932 453.929261 
L 215.166562 451.933577 
L 215.151992 449.937893 
L 215.135691 447.942208 
L 215.117494 445.946524 
L 215.09695 443.95084 
L 215.07329 441.955156 
L 215.045408 439.959472 
L 215.011883 437.963788 
L 214.97104 435.968104 
L 214.921068 433.97242 
L 214.860193 431.976736 
L 214.786899 429.981051 
L 214.700179 427.985367 
L 214.599792 425.989683 
L 214.486484 423.993999 
L 214.362149 421.998315 
L 214.229883 420.002631 
L 214.093902 418.006947 
L 213.959328 416.011263 
L 213.831834 414.015579 
L 213.717179 412.019894 
L 213.620687 410.02421 
L 213.546724 408.028526 
L 213.498239 406.032842 
L 213.476443 404.037158 
L 213.480656 402.041474 
L 213.508362 400.04579 
L 213.555469 398.050106 
L 213.616732 396.054421 
L 213.686301 394.058737 
L 213.758319 392.063053 
L 213.82749 390.067369 
L 213.889556 388.071685 
L 213.941633 386.076001 
L 213.982362 384.080317 
L 214.011883 382.084633 
L 214.031649 380.088949 
L 214.044106 378.093264 
L 214.052308 376.09758 
L 214.059506 374.101896 
L 214.068767 372.106212 
L 214.082667 370.110528 
L 214.103066 368.114844 
L 214.130987 366.11916 
L 214.166576 364.123476 
L 214.209127 362.127792 
L 214.257129 360.132107 
L 214.308316 358.136423 
L 214.359672 356.140739 
L 214.40738 354.145055 
L 214.446709 352.149371 
L 214.471827 350.153687 
L 214.47559 348.158003 
L 214.449325 346.162319 
L 214.382681 344.166635 
L 214.263613 342.17095 
L 214.078583 340.175266 
L 213.813038 338.179582 
L 213.452242 336.183898 
L 212.982467 334.188214 
L 212.392528 332.19253 
L 211.675572 330.196846 
L 210.830952 328.201162 
L 209.865977 326.205478 
L 208.797269 324.209793 
L 207.651445 322.214109 
L 206.464901 320.218425 
L 205.282513 318.222741 
L 204.155253 316.227057 
L 203.13682 314.231373 
L 202.279582 312.235689 
L 201.630231 310.240005 
L 201.225666 308.24432 
L 201.089587 306.248636 
L 229.456529 306.248636 
L 229.456529 306.248636 
L 229.32045 308.24432 
L 228.915884 310.240005 
L 228.266534 312.235689 
L 227.409296 314.231373 
L 226.390863 316.227057 
L 225.263603 318.222741 
L 224.081215 320.218425 
L 222.89467 322.214109 
L 221.748847 324.209793 
L 220.680138 326.205478 
L 219.715163 328.201162 
L 218.870543 330.196846 
L 218.153588 332.19253 
L 217.563649 334.188214 
L 217.093874 336.183898 
L 216.733077 338.179582 
L 216.467532 340.175266 
L 216.282502 342.17095 
L 216.163435 344.166635 
L 216.096791 346.162319 
L 216.070525 348.158003 
L 216.074288 350.153687 
L 216.099407 352.149371 
L 216.138735 354.145055 
L 216.186444 356.140739 
L 216.237799 358.136423 
L 216.288986 360.132107 
L 216.336989 362.127792 
L 216.37954 364.123476 
L 216.415129 366.11916 
L 216.443049 368.114844 
L 216.463448 370.110528 
L 216.477348 372.106212 
L 216.48661 374.101896 
L 216.493808 376.09758 
L 216.50201 378.093264 
L 216.514467 380.088949 
L 216.534233 382.084633 
L 216.563754 384.080317 
L 216.604482 386.076001 
L 216.656559 388.071685 
L 216.718626 390.067369 
L 216.787797 392.063053 
L 216.859815 394.058737 
L 216.929384 396.054421 
L 216.990647 398.050106 
L 217.037753 400.04579 
L 217.06546 402.041474 
L 217.069672 404.037158 
L 217.047877 406.032842 
L 216.999392 408.028526 
L 216.925428 410.02421 
L 216.828937 412.019894 
L 216.714282 414.015579 
L 216.586788 416.011263 
L 216.452214 418.006947 
L 216.316233 420.002631 
L 216.183966 421.998315 
L 216.059632 423.993999 
L 215.946324 425.989683 
L 215.845936 427.985367 
L 215.759217 429.981051 
L 215.685923 431.976736 
L 215.625048 433.97242 
L 215.575076 435.968104 
L 215.534233 437.963788 
L 215.500708 439.959472 
L 215.472826 441.955156 
L 215.449166 443.95084 
L 215.428622 445.946524 
L 215.410425 447.942208 
L 215.394124 449.937893 
L 215.379554 451.933577 
L 215.366796 453.929261 
L 215.356141 455.924945 
L 215.34807 457.920629 
L 215.343247 459.916313 
L 215.342526 461.911997 
L 215.346968 463.907681 
L 215.357854 465.903365 
L 215.376694 467.89905 
L 215.4052 469.894734 
L 215.445225 471.890418 
L 215.498662 473.886102 
L 215.567279 475.881786 
L 215.652514 477.87747 
L 215.755228 479.873154 
L 215.875446 481.868838 
L 216.012109 483.864522 
L 216.162888 485.860207 
L 216.32408 487.855891 
L 216.490638 489.851575 
L 216.656346 491.847259 
L 216.814147 493.842943 
L 216.956608 495.838627 
L 217.07648 497.834311 
L 217.167305 499.829995 
L 217.223981 501.82568 
L 217.243239 503.821364 
z
" clip-path="url(#p3dcd04e367)" style="fill: #1f77b4; fill-opacity: 0.3"/>
   </g>
   <g id="PolyCollection_10">
    <path d="M 276.858202 503.821364 
L 267.155682 503.821364 
L 267.185826 501.82568 
L 267.276423 499.829995 
L 267.423925 497.834311 
L 267.622694 495.838627 
L 267.865349 493.842943 
L 268.143193 491.847259 
L 268.446711 489.851575 
L 268.766079 487.855891 
L 269.091659 485.860207 
L 269.41444 483.864522 
L 269.726393 481.868838 
L 270.020742 479.873154 
L 270.292116 477.87747 
L 270.536613 475.881786 
L 270.751759 473.886102 
L 270.936406 471.890418 
L 271.090562 469.894734 
L 271.215191 467.89905 
L 271.311995 465.903365 
L 271.383198 463.907681 
L 271.431337 461.911997 
L 271.459084 459.916313 
L 271.46908 457.920629 
L 271.463814 455.924945 
L 271.445515 453.929261 
L 271.416082 451.933577 
L 271.377031 449.937893 
L 271.329473 447.942208 
L 271.274111 445.946524 
L 271.211262 443.95084 
L 271.140908 441.955156 
L 271.062766 439.959472 
L 270.976385 437.963788 
L 270.881262 435.968104 
L 270.776975 433.97242 
L 270.66332 431.976736 
L 270.540446 429.981051 
L 270.408975 427.985367 
L 270.270091 425.989683 
L 270.125587 423.993999 
L 269.977869 421.998315 
L 269.829888 420.002631 
L 269.685032 418.006947 
L 269.546956 416.011263 
L 269.419374 414.015579 
L 269.305827 412.019894 
L 269.209451 410.02421 
L 269.132753 408.028526 
L 269.077443 406.032842 
L 269.044308 404.037158 
L 269.033163 402.041474 
L 269.042883 400.04579 
L 269.0715 398.050106 
L 269.116371 396.054421 
L 269.174395 394.058737 
L 269.242251 392.063053 
L 269.316649 390.067369 
L 269.394555 388.071685 
L 269.473381 386.076001 
L 269.551116 384.080317 
L 269.626391 382.084633 
L 269.698486 380.088949 
L 269.767254 378.093264 
L 269.83301 376.09758 
L 269.896356 374.101896 
L 269.957997 372.106212 
L 270.018528 370.110528 
L 270.078232 368.114844 
L 270.136884 366.11916 
L 270.193582 364.123476 
L 270.246596 362.127792 
L 270.293263 360.132107 
L 270.329906 358.136423 
L 270.351794 356.140739 
L 270.353157 354.145055 
L 270.327238 352.149371 
L 270.266415 350.153687 
L 270.162393 348.158003 
L 270.006471 346.162319 
L 269.789907 344.166635 
L 269.50436 342.17095 
L 269.142433 340.175266 
L 268.698268 338.179582 
L 268.1682 336.183898 
L 267.551403 334.188214 
L 266.850491 332.19253 
L 266.07202 330.196846 
L 265.22681 328.201162 
L 264.330059 326.205478 
L 263.40117 324.209793 
L 262.46329 322.214109 
L 261.542531 320.218425 
L 260.666912 318.222741 
L 259.865061 316.227057 
L 259.164766 314.231373 
L 258.591464 312.235689 
L 258.166791 310.240005 
L 257.907303 308.24432 
L 257.823471 306.248636 
L 286.190413 306.248636 
L 286.190413 306.248636 
L 286.106582 308.24432 
L 285.847093 310.240005 
L 285.422421 312.235689 
L 284.849119 314.231373 
L 284.148823 316.227057 
L 283.346973 318.222741 
L 282.471353 320.218425 
L 281.550595 322.214109 
L 280.612715 324.209793 
L 279.683826 326.205478 
L 278.787074 328.201162 
L 277.941864 330.196846 
L 277.163393 332.19253 
L 276.462482 334.188214 
L 275.845684 336.183898 
L 275.315616 338.179582 
L 274.871452 340.175266 
L 274.509524 342.17095 
L 274.223978 344.166635 
L 274.007413 346.162319 
L 273.851492 348.158003 
L 273.747469 350.153687 
L 273.686646 352.149371 
L 273.660727 354.145055 
L 273.66209 356.140739 
L 273.683979 358.136423 
L 273.720621 360.132107 
L 273.767288 362.127792 
L 273.820303 364.123476 
L 273.877 366.11916 
L 273.935653 368.114844 
L 273.995357 370.110528 
L 274.055888 372.106212 
L 274.117528 374.101896 
L 274.180875 376.09758 
L 274.24663 378.093264 
L 274.315399 380.088949 
L 274.387493 382.084633 
L 274.462769 384.080317 
L 274.540503 386.076001 
L 274.619329 388.071685 
L 274.697236 390.067369 
L 274.771634 392.063053 
L 274.83949 394.058737 
L 274.897513 396.054421 
L 274.942385 398.050106 
L 274.971002 400.04579 
L 274.980721 402.041474 
L 274.969577 404.037158 
L 274.936441 406.032842 
L 274.881131 408.028526 
L 274.804434 410.02421 
L 274.708057 412.019894 
L 274.59451 414.015579 
L 274.466928 416.011263 
L 274.328852 418.006947 
L 274.183997 420.002631 
L 274.036016 421.998315 
L 273.888297 423.993999 
L 273.743794 425.989683 
L 273.604909 427.985367 
L 273.473438 429.981051 
L 273.350564 431.976736 
L 273.236909 433.97242 
L 273.132622 435.968104 
L 273.037499 437.963788 
L 272.951118 439.959472 
L 272.872976 441.955156 
L 272.802623 443.95084 
L 272.739774 445.946524 
L 272.684411 447.942208 
L 272.636853 449.937893 
L 272.597803 451.933577 
L 272.56837 453.929261 
L 272.550071 455.924945 
L 272.544804 457.920629 
L 272.554801 459.916313 
L 272.582547 461.911997 
L 272.630687 463.907681 
L 272.701889 465.903365 
L 272.798694 467.89905 
L 272.923323 469.894734 
L 273.077479 471.890418 
L 273.262126 473.886102 
L 273.477272 475.881786 
L 273.721768 477.87747 
L 273.993142 479.873154 
L 274.287491 481.868838 
L 274.599445 483.864522 
L 274.922225 485.860207 
L 275.247806 487.855891 
L 275.567173 489.851575 
L 275.870691 491.847259 
L 276.148535 493.842943 
L 276.39119 495.838627 
L 276.58996 497.834311 
L 276.737461 499.829995 
L 276.828058 501.82568 
L 276.858202 503.821364 
z
" clip-path="url(#p3dcd04e367)" style="fill: #1f77b4; fill-opacity: 0.3"/>
   </g>
   <g id="PolyCollection_11">
    <path d="M 332.548407 503.821364 
L 324.933246 503.821364 
L 324.957212 501.82568 
L 325.030668 499.829995 
L 325.150501 497.834311 
L 325.311797 495.838627 
L 325.508155 493.842943 
L 325.732072 491.847259 
L 325.975384 489.851575 
L 326.229724 487.855891 
L 326.486946 485.860207 
L 326.73951 483.864522 
L 326.980781 481.868838 
L 327.20524 479.873154 
L 327.408604 477.87747 
L 327.587849 475.881786 
L 327.741162 473.886102 
L 327.867824 471.890418 
L 327.968052 469.894734 
L 328.042814 467.89905 
L 328.093639 465.903365 
L 328.122434 463.907681 
L 328.131306 461.911997 
L 328.122418 459.916313 
L 328.097866 457.920629 
L 328.059568 455.924945 
L 328.009192 453.929261 
L 327.948092 451.933577 
L 327.877267 449.937893 
L 327.797337 447.942208 
L 327.708541 445.946524 
L 327.610757 443.95084 
L 327.503545 441.955156 
L 327.386226 439.959472 
L 327.257982 437.963788 
L 327.117988 435.968104 
L 326.965569 433.97242 
L 326.800363 431.976736 
L 326.622491 429.981051 
L 326.432704 427.985367 
L 326.232496 425.989683 
L 326.024163 423.993999 
L 325.8108 421.998315 
L 325.596209 420.002631 
L 325.384743 418.006947 
L 325.181064 416.011263 
L 324.989855 414.015579 
L 324.815498 412.019894 
L 324.661749 410.02421 
L 324.531444 408.028526 
L 324.42627 406.032842 
L 324.346625 404.037158 
L 324.291585 402.041474 
L 324.258993 400.04579 
L 324.245646 398.050106 
L 324.247587 396.054421 
L 324.260458 394.058737 
L 324.27988 392.063053 
L 324.301827 390.067369 
L 324.322959 388.071685 
L 324.340873 386.076001 
L 324.354263 384.080317 
L 324.362963 382.084633 
L 324.367884 380.088949 
L 324.370861 378.093264 
L 324.374407 376.09758 
L 324.381424 374.101896 
L 324.394888 372.106212 
L 324.417523 370.110528 
L 324.451508 368.114844 
L 324.498209 366.11916 
L 324.557969 364.123476 
L 324.629932 362.127792 
L 324.711929 360.132107 
L 324.800405 358.136423 
L 324.890391 356.140739 
L 324.975518 354.145055 
L 325.048086 352.149371 
L 325.099188 350.153687 
L 325.1189 348.158003 
L 325.096565 346.162319 
L 325.021167 344.166635 
L 324.881815 342.17095 
L 324.668332 340.175266 
L 324.371941 338.179582 
L 323.986015 336.183898 
L 323.506859 334.188214 
L 322.934451 332.19253 
L 322.27309 330.196846 
L 321.531868 328.201162 
L 320.724895 326.205478 
L 319.87121 324.209793 
L 318.99435 322.214109 
L 318.121546 320.218425 
L 317.282577 318.222741 
L 316.508328 316.227057 
L 315.829154 314.231373 
L 315.273147 312.235689 
L 314.864461 310.240005 
L 314.621824 308.24432 
L 314.557355 306.248636 
L 342.924298 306.248636 
L 342.924298 306.248636 
L 342.859829 308.24432 
L 342.617192 310.240005 
L 342.208506 312.235689 
L 341.652499 314.231373 
L 340.973325 316.227057 
L 340.199076 318.222741 
L 339.360107 320.218425 
L 338.487303 322.214109 
L 337.610443 324.209793 
L 336.756758 326.205478 
L 335.949784 328.201162 
L 335.208563 330.196846 
L 334.547202 332.19253 
L 333.974794 334.188214 
L 333.495637 336.183898 
L 333.109712 338.179582 
L 332.813321 340.175266 
L 332.599838 342.17095 
L 332.460485 344.166635 
L 332.385088 346.162319 
L 332.362753 348.158003 
L 332.382465 350.153687 
L 332.433567 352.149371 
L 332.506135 354.145055 
L 332.591262 356.140739 
L 332.681248 358.136423 
L 332.769724 360.132107 
L 332.851721 362.127792 
L 332.923684 364.123476 
L 332.983443 366.11916 
L 333.030145 368.114844 
L 333.06413 370.110528 
L 333.086765 372.106212 
L 333.100228 374.101896 
L 333.107246 376.09758 
L 333.110792 378.093264 
L 333.113769 380.088949 
L 333.11869 382.084633 
L 333.12739 384.080317 
L 333.14078 386.076001 
L 333.158694 388.071685 
L 333.179826 390.067369 
L 333.201773 392.063053 
L 333.221195 394.058737 
L 333.234066 396.054421 
L 333.236007 398.050106 
L 333.22266 400.04579 
L 333.190067 402.041474 
L 333.135028 404.037158 
L 333.055383 406.032842 
L 332.950209 408.028526 
L 332.819904 410.02421 
L 332.666155 412.019894 
L 332.491798 414.015579 
L 332.300589 416.011263 
L 332.09691 418.006947 
L 331.885443 420.002631 
L 331.670853 421.998315 
L 331.45749 423.993999 
L 331.249157 425.989683 
L 331.048949 427.985367 
L 330.859162 429.981051 
L 330.68129 431.976736 
L 330.516084 433.97242 
L 330.363665 435.968104 
L 330.223671 437.963788 
L 330.095426 439.959472 
L 329.978108 441.955156 
L 329.870896 443.95084 
L 329.773112 445.946524 
L 329.684316 447.942208 
L 329.604386 449.937893 
L 329.533561 451.933577 
L 329.472461 453.929261 
L 329.422085 455.924945 
L 329.383787 457.920629 
L 329.359234 459.916313 
L 329.350347 461.911997 
L 329.359219 463.907681 
L 329.388013 465.903365 
L 329.438839 467.89905 
L 329.513601 469.894734 
L 329.613829 471.890418 
L 329.740491 473.886102 
L 329.893804 475.881786 
L 330.073049 477.87747 
L 330.276413 479.873154 
L 330.500872 481.868838 
L 330.742143 483.864522 
L 330.994707 485.860207 
L 331.251929 487.855891 
L 331.506268 489.851575 
L 331.749581 491.847259 
L 331.973498 493.842943 
L 332.169856 495.838627 
L 332.331152 497.834311 
L 332.450985 499.829995 
L 332.524441 501.82568 
L 332.548407 503.821364 
z
" clip-path="url(#p3dcd04e367)" style="fill: #1f77b4; fill-opacity: 0.3"/>
   </g>
   <g id="PolyCollection_12">
    <path d="M 388.901397 503.821364 
L 382.048025 503.821364 
L 382.068762 501.82568 
L 382.134256 499.829995 
L 382.241638 497.834311 
L 382.386393 495.838627 
L 382.56265 493.842943 
L 382.763542 491.847259 
L 382.981617 489.851575 
L 383.209255 487.855891 
L 383.439067 485.860207 
L 383.664238 483.864522 
L 383.878806 481.868838 
L 384.077853 479.873154 
L 384.257602 477.87747 
L 384.415442 475.881786 
L 384.54987 473.886102 
L 384.660385 471.890418 
L 384.747333 469.894734 
L 384.811741 467.89905 
L 384.855136 465.903365 
L 384.879376 463.907681 
L 384.886491 461.911997 
L 384.878553 459.916313 
L 384.857556 457.920629 
L 384.825325 455.924945 
L 384.783443 453.929261 
L 384.733193 451.933577 
L 384.675517 449.937893 
L 384.610995 447.942208 
L 384.539831 445.946524 
L 384.461871 443.95084 
L 384.376641 441.955156 
L 384.283403 439.959472 
L 384.181256 437.963788 
L 384.069245 435.968104 
L 383.946508 433.97242 
L 383.812425 431.976736 
L 383.666776 429.981051 
L 383.509882 427.985367 
L 383.342718 425.989683 
L 383.166976 423.993999 
L 382.985073 421.998315 
L 382.800086 420.002631 
L 382.615622 418.006947 
L 382.435619 416.011263 
L 382.2641 414.015579 
L 382.104893 412.019894 
L 381.961358 410.02421 
L 381.836128 408.028526 
L 381.730912 406.032842 
L 381.646372 404.037158 
L 381.582094 402.041474 
L 381.536653 400.04579 
L 381.507778 398.050106 
L 381.492585 396.054421 
L 381.487871 394.058737 
L 381.490428 392.063053 
L 381.497341 390.067369 
L 381.506255 388.071685 
L 381.515562 386.076001 
L 381.524518 384.080317 
L 381.533253 382.084633 
L 381.5427 380.088949 
L 381.554443 378.093264 
L 381.570498 376.09758 
L 381.593067 374.101896 
L 381.624258 372.106212 
L 381.665833 370.110528 
L 381.718959 368.114844 
L 381.784004 366.11916 
L 381.86037 364.123476 
L 381.946371 362.127792 
L 382.039145 360.132107 
L 382.134601 358.136423 
L 382.227408 356.140739 
L 382.311005 354.145055 
L 382.377661 352.149371 
L 382.418578 350.153687 
L 382.424061 348.158003 
L 382.38377 346.162319 
L 382.287063 344.166635 
L 382.123451 342.17095 
L 381.883167 340.175266 
L 381.557827 338.179582 
L 381.141174 336.183898 
L 380.629853 334.188214 
L 380.024162 332.19253 
L 379.328712 330.196846 
L 378.552914 328.201162 
L 377.711225 326.205478 
L 376.823074 324.209793 
L 375.912443 322.214109 
L 375.007057 320.218425 
L 374.137232 318.222741 
L 373.334412 316.227057 
L 372.629494 314.231373 
L 372.051064 312.235689 
L 371.623677 310.240005 
L 371.366327 308.24432 
L 371.29124 306.248636 
L 399.658182 306.248636 
L 399.658182 306.248636 
L 399.583095 308.24432 
L 399.325744 310.240005 
L 398.898357 312.235689 
L 398.319928 314.231373 
L 397.61501 316.227057 
L 396.81219 318.222741 
L 395.942365 320.218425 
L 395.036979 322.214109 
L 394.126347 324.209793 
L 393.238197 326.205478 
L 392.396508 328.201162 
L 391.62071 330.196846 
L 390.925259 332.19253 
L 390.319568 334.188214 
L 389.808247 336.183898 
L 389.391594 338.179582 
L 389.066255 340.175266 
L 388.825971 342.17095 
L 388.662359 344.166635 
L 388.565651 346.162319 
L 388.52536 348.158003 
L 388.530844 350.153687 
L 388.571761 352.149371 
L 388.638417 354.145055 
L 388.722014 356.140739 
L 388.81482 358.136423 
L 388.910277 360.132107 
L 389.00305 362.127792 
L 389.089052 364.123476 
L 389.165418 366.11916 
L 389.230462 368.114844 
L 389.283588 370.110528 
L 389.325163 372.106212 
L 389.356355 374.101896 
L 389.378923 376.09758 
L 389.394979 378.093264 
L 389.406722 380.088949 
L 389.416169 382.084633 
L 389.424904 384.080317 
L 389.433859 386.076001 
L 389.443167 388.071685 
L 389.45208 390.067369 
L 389.458994 392.063053 
L 389.46155 394.058737 
L 389.456837 396.054421 
L 389.441644 398.050106 
L 389.412768 400.04579 
L 389.367327 402.041474 
L 389.303049 404.037158 
L 389.21851 406.032842 
L 389.113294 408.028526 
L 388.988063 410.02421 
L 388.844528 412.019894 
L 388.685322 414.015579 
L 388.513802 416.011263 
L 388.333799 418.006947 
L 388.149336 420.002631 
L 387.964349 421.998315 
L 387.782445 423.993999 
L 387.606703 425.989683 
L 387.439539 427.985367 
L 387.282645 429.981051 
L 387.136996 431.976736 
L 387.002913 433.97242 
L 386.880176 435.968104 
L 386.768165 437.963788 
L 386.666018 439.959472 
L 386.572781 441.955156 
L 386.48755 443.95084 
L 386.409591 445.946524 
L 386.338427 447.942208 
L 386.273904 449.937893 
L 386.216229 451.933577 
L 386.165979 453.929261 
L 386.124097 455.924945 
L 386.091866 457.920629 
L 386.070868 459.916313 
L 386.06293 461.911997 
L 386.070046 463.907681 
L 386.094285 465.903365 
L 386.13768 467.89905 
L 386.202088 469.894734 
L 386.289036 471.890418 
L 386.399551 473.886102 
L 386.53398 475.881786 
L 386.691819 477.87747 
L 386.871569 479.873154 
L 387.070615 481.868838 
L 387.285184 483.864522 
L 387.510355 485.860207 
L 387.740166 487.855891 
L 387.967804 489.851575 
L 388.185879 491.847259 
L 388.386772 493.842943 
L 388.563028 495.838627 
L 388.707783 497.834311 
L 388.815165 499.829995 
L 388.88066 501.82568 
L 388.901397 503.821364 
z
" clip-path="url(#p3dcd04e367)" style="fill: #1f77b4; fill-opacity: 0.3"/>
   </g>
   <g id="matplotlib.axis_3">
    <g id="xtick_7">
     <g id="line2d_13">
      <g>
       <use xlink:href="#ma3cc30d745" x="101.805289" y="513.7" style="stroke: #000000; stroke-width: 0.8"/>
      </g>
     </g>
     <g id="text_15">
      <!-- A-B -->
      <g transform="translate(87.591696 533.617344) scale(0.17 -0.17)">
       <defs>
        <path id="DejaVuSans-42" d="M 1259 2228 
L 1259 519 
L 2272 519 
Q 2781 519 3026 730 
Q 3272 941 3272 1375 
Q 3272 1813 3026 2020 
Q 2781 2228 2272 2228 
L 1259 2228 
z
M 1259 4147 
L 1259 2741 
L 2194 2741 
Q 2656 2741 2882 2914 
Q 3109 3088 3109 3444 
Q 3109 3797 2882 3972 
Q 2656 4147 2194 4147 
L 1259 4147 
z
M 628 4666 
L 2241 4666 
Q 2963 4666 3353 4366 
Q 3744 4066 3744 3513 
Q 3744 3084 3544 2831 
Q 3344 2578 2956 2516 
Q 3422 2416 3680 2098 
Q 3938 1781 3938 1306 
Q 3938 681 3513 340 
Q 3088 0 2303 0 
L 628 0 
L 628 4666 
z
" transform="scale(0.015625)"/>
       </defs>
       <use xlink:href="#DejaVuSans-41"/>
       <use xlink:href="#DejaVuSans-2d" x="66.158203"/>
       <use xlink:href="#DejaVuSans-42" x="98.617188"/>
      </g>
     </g>
    </g>
    <g id="xtick_8">
     <g id="line2d_14">
      <g>
       <use xlink:href="#ma3cc30d745" x="158.539174" y="513.7" style="stroke: #000000; stroke-width: 0.8"/>
      </g>
     </g>
     <g id="text_16">
      <!-- A-O -->
      <g transform="translate(142.924408 533.617344) scale(0.17 -0.17)">
       <defs>
        <path id="DejaVuSans-4f" d="M 2522 4238 
Q 1834 4238 1429 3725 
Q 1025 3213 1025 2328 
Q 1025 1447 1429 934 
Q 1834 422 2522 422 
Q 3209 422 3611 934 
Q 4013 1447 4013 2328 
Q 4013 3213 3611 3725 
Q 3209 4238 2522 4238 
z
M 2522 4750 
Q 3503 4750 4090 4092 
Q 4678 3434 4678 2328 
Q 4678 1225 4090 567 
Q 3503 -91 2522 -91 
Q 1538 -91 948 565 
Q 359 1222 359 2328 
Q 359 3434 948 4092 
Q 1538 4750 2522 4750 
z
" transform="scale(0.015625)"/>
       </defs>
       <use xlink:href="#DejaVuSans-41"/>
       <use xlink:href="#DejaVuSans-2d" x="66.158203"/>
       <use xlink:href="#DejaVuSans-4f" x="104.992188"/>
      </g>
     </g>
    </g>
    <g id="xtick_9">
     <g id="line2d_15">
      <g>
       <use xlink:href="#ma3cc30d745" x="215.273058" y="513.7" style="stroke: #000000; stroke-width: 0.8"/>
      </g>
     </g>
     <g id="text_17">
      <!-- B-A -->
      <g transform="translate(200.751339 533.617344) scale(0.17 -0.17)">
       <use xlink:href="#DejaVuSans-42"/>
       <use xlink:href="#DejaVuSans-2d" x="68.603516"/>
       <use xlink:href="#DejaVuSans-41" x="102.4375"/>
      </g>
     </g>
    </g>
    <g id="xtick_10">
     <g id="line2d_16">
      <g>
       <use xlink:href="#ma3cc30d745" x="272.006942" y="513.7" style="stroke: #000000; stroke-width: 0.8"/>
      </g>
     </g>
     <g id="text_18">
      <!-- B-O -->
      <g transform="translate(256.183661 533.617344) scale(0.17 -0.17)">
       <use xlink:href="#DejaVuSans-42"/>
       <use xlink:href="#DejaVuSans-2d" x="68.603516"/>
       <use xlink:href="#DejaVuSans-4f" x="107.4375"/>
      </g>
     </g>
    </g>
    <g id="xtick_11">
     <g id="line2d_17">
      <g>
       <use xlink:href="#ma3cc30d745" x="328.740826" y="513.7" style="stroke: #000000; stroke-width: 0.8"/>
      </g>
     </g>
     <g id="text_19">
      <!-- O-A -->
      <g transform="translate(313.126061 533.617344) scale(0.17 -0.17)">
       <use xlink:href="#DejaVuSans-4f"/>
       <use xlink:href="#DejaVuSans-2d" x="81.460938"/>
       <use xlink:href="#DejaVuSans-41" x="115.294922"/>
      </g>
     </g>
    </g>
    <g id="xtick_12">
     <g id="line2d_18">
      <g>
       <use xlink:href="#ma3cc30d745" x="385.474711" y="513.7" style="stroke: #000000; stroke-width: 0.8"/>
      </g>
     </g>
     <g id="text_20">
      <!-- O-B -->
      <g transform="translate(369.959554 533.617344) scale(0.17 -0.17)">
       <use xlink:href="#DejaVuSans-4f"/>
       <use xlink:href="#DejaVuSans-2d" x="81.460938"/>
       <use xlink:href="#DejaVuSans-42" x="113.919922"/>
      </g>
     </g>
    </g>
    <g id="text_21">
     <!-- India -->
     <g transform="translate(222.779141 554.070156) scale(0.17 -0.17)">
      <defs>
       <path id="DejaVuSans-49" d="M 628 4666 
L 1259 4666 
L 1259 0 
L 628 0 
L 628 4666 
z
" transform="scale(0.015625)"/>
       <path id="DejaVuSans-6e" d="M 3513 2113 
L 3513 0 
L 2938 0 
L 2938 2094 
Q 2938 2591 2744 2837 
Q 2550 3084 2163 3084 
Q 1697 3084 1428 2787 
Q 1159 2491 1159 1978 
L 1159 0 
L 581 0 
L 581 3500 
L 1159 3500 
L 1159 2956 
Q 1366 3272 1645 3428 
Q 1925 3584 2291 3584 
Q 2894 3584 3203 3211 
Q 3513 2838 3513 2113 
z
" transform="scale(0.015625)"/>
      </defs>
      <use xlink:href="#DejaVuSans-49"/>
      <use xlink:href="#DejaVuSans-6e" x="29.492188"/>
      <use xlink:href="#DejaVuSans-64" x="92.871094"/>
      <use xlink:href="#DejaVuSans-69" x="156.347656"/>
      <use xlink:href="#DejaVuSans-61" x="184.130859"/>
     </g>
    </g>
   </g>
   <g id="matplotlib.axis_4">
    <g id="ytick_7">
     <g id="line2d_19">
      <g>
       <use xlink:href="#mc809997f27" x="72.02" y="503.821364" style="stroke: #000000; stroke-width: 0.8"/>
      </g>
     </g>
     <g id="text_22">
      <!-- 0.0 -->
      <g transform="translate(37.984688 510.280036) scale(0.17 -0.17)">
       <use xlink:href="#DejaVuSans-30"/>
       <use xlink:href="#DejaVuSans-2e" x="63.623047"/>
       <use xlink:href="#DejaVuSans-30" x="95.410156"/>
      </g>
     </g>
    </g>
    <g id="ytick_8">
     <g id="line2d_20">
      <g>
       <use xlink:href="#mc809997f27" x="72.02" y="464.306818" style="stroke: #000000; stroke-width: 0.8"/>
      </g>
     </g>
     <g id="text_23">
      <!-- 0.2 -->
      <g transform="translate(37.984688 470.76549) scale(0.17 -0.17)">
       <use xlink:href="#DejaVuSans-30"/>
       <use xlink:href="#DejaVuSans-2e" x="63.623047"/>
       <use xlink:href="#DejaVuSans-32" x="95.410156"/>
      </g>
     </g>
    </g>
    <g id="ytick_9">
     <g id="line2d_21">
      <g>
       <use xlink:href="#mc809997f27" x="72.02" y="424.792273" style="stroke: #000000; stroke-width: 0.8"/>
      </g>
     </g>
     <g id="text_24">
      <!-- 0.4 -->
      <g transform="translate(37.984688 431.250945) scale(0.17 -0.17)">
       <use xlink:href="#DejaVuSans-30"/>
       <use xlink:href="#DejaVuSans-2e" x="63.623047"/>
       <use xlink:href="#DejaVuSans-34" x="95.410156"/>
      </g>
     </g>
    </g>
    <g id="ytick_10">
     <g id="line2d_22">
      <g>
       <use xlink:href="#mc809997f27" x="72.02" y="385.277727" style="stroke: #000000; stroke-width: 0.8"/>
      </g>
     </g>
     <g id="text_25">
      <!-- 0.6 -->
      <g transform="translate(37.984688 391.736399) scale(0.17 -0.17)">
       <use xlink:href="#DejaVuSans-30"/>
       <use xlink:href="#DejaVuSans-2e" x="63.623047"/>
       <use xlink:href="#DejaVuSans-36" x="95.410156"/>
      </g>
     </g>
    </g>
    <g id="ytick_11">
     <g id="line2d_23">
      <g>
       <use xlink:href="#mc809997f27" x="72.02" y="345.763182" style="stroke: #000000; stroke-width: 0.8"/>
      </g>
     </g>
     <g id="text_26">
      <!-- 0.8 -->
      <g transform="translate(37.984688 352.221854) scale(0.17 -0.17)">
       <use xlink:href="#DejaVuSans-30"/>
       <use xlink:href="#DejaVuSans-2e" x="63.623047"/>
       <use xlink:href="#DejaVuSans-38" x="95.410156"/>
      </g>
     </g>
    </g>
    <g id="ytick_12">
     <g id="line2d_24">
      <g>
       <use xlink:href="#mc809997f27" x="72.02" y="306.248636" style="stroke: #000000; stroke-width: 0.8"/>
      </g>
     </g>
     <g id="text_27">
      <!-- 1.0 -->
      <g transform="translate(37.984688 312.707308) scale(0.17 -0.17)">
       <use xlink:href="#DejaVuSans-31"/>
       <use xlink:href="#DejaVuSans-2e" x="63.623047"/>
       <use xlink:href="#DejaVuSans-30" x="95.410156"/>
      </g>
     </g>
    </g>
    <g id="text_28">
     <!-- Jaccard similarity -->
     <g transform="translate(30.449219 477.970312) rotate(-90) scale(0.17 -0.17)">
      <use xlink:href="#DejaVuSans-4a"/>
      <use xlink:href="#DejaVuSans-61" x="29.492188"/>
      <use xlink:href="#DejaVuSans-63" x="90.771484"/>
      <use xlink:href="#DejaVuSans-63" x="145.751953"/>
      <use xlink:href="#DejaVuSans-61" x="200.732422"/>
      <use xlink:href="#DejaVuSans-72" x="262.011719"/>
      <use xlink:href="#DejaVuSans-64" x="301.375"/>
      <use xlink:href="#DejaVuSans-20" x="364.851562"/>
      <use xlink:href="#DejaVuSans-73" x="396.638672"/>
      <use xlink:href="#DejaVuSans-69" x="448.738281"/>
      <use xlink:href="#DejaVuSans-6d" x="476.521484"/>
      <use xlink:href="#DejaVuSans-69" x="573.933594"/>
      <use xlink:href="#DejaVuSans-6c" x="601.716797"/>
      <use xlink:href="#DejaVuSans-61" x="629.5"/>
      <use xlink:href="#DejaVuSans-72" x="690.779297"/>
      <use xlink:href="#DejaVuSans-69" x="731.892578"/>
      <use xlink:href="#DejaVuSans-74" x="759.675781"/>
      <use xlink:href="#DejaVuSans-79" x="798.884766"/>
     </g>
    </g>
   </g>
   <g id="LineCollection_5">
    <path d="M 94.713554 306.248636 
L 108.897025 306.248636 
" clip-path="url(#p3dcd04e367)" style="fill: none; stroke: #1f77b4; stroke-width: 1.5"/>
    <path d="M 151.447438 306.248636 
L 165.630909 306.248636 
" clip-path="url(#p3dcd04e367)" style="fill: none; stroke: #1f77b4; stroke-width: 1.5"/>
    <path d="M 208.181322 306.248636 
L 222.364793 306.248636 
" clip-path="url(#p3dcd04e367)" style="fill: none; stroke: #1f77b4; stroke-width: 1.5"/>
    <path d="M 264.915207 306.248636 
L 279.098678 306.248636 
" clip-path="url(#p3dcd04e367)" style="fill: none; stroke: #1f77b4; stroke-width: 1.5"/>
    <path d="M 321.649091 306.248636 
L 335.832562 306.248636 
" clip-path="url(#p3dcd04e367)" style="fill: none; stroke: #1f77b4; stroke-width: 1.5"/>
    <path d="M 378.382975 306.248636 
L 392.566446 306.248636 
" clip-path="url(#p3dcd04e367)" style="fill: none; stroke: #1f77b4; stroke-width: 1.5"/>
   </g>
   <g id="LineCollection_6">
    <path d="M 94.713554 503.821364 
L 108.897025 503.821364 
" clip-path="url(#p3dcd04e367)" style="fill: none; stroke: #1f77b4; stroke-width: 1.5"/>
    <path d="M 151.447438 503.821364 
L 165.630909 503.821364 
" clip-path="url(#p3dcd04e367)" style="fill: none; stroke: #1f77b4; stroke-width: 1.5"/>
    <path d="M 208.181322 503.821364 
L 222.364793 503.821364 
" clip-path="url(#p3dcd04e367)" style="fill: none; stroke: #1f77b4; stroke-width: 1.5"/>
    <path d="M 264.915207 503.821364 
L 279.098678 503.821364 
" clip-path="url(#p3dcd04e367)" style="fill: none; stroke: #1f77b4; stroke-width: 1.5"/>
    <path d="M 321.649091 503.821364 
L 335.832562 503.821364 
" clip-path="url(#p3dcd04e367)" style="fill: none; stroke: #1f77b4; stroke-width: 1.5"/>
    <path d="M 378.382975 503.821364 
L 392.566446 503.821364 
" clip-path="url(#p3dcd04e367)" style="fill: none; stroke: #1f77b4; stroke-width: 1.5"/>
   </g>
   <g id="LineCollection_7">
    <path d="M 101.805289 503.821364 
L 101.805289 306.248636 
" clip-path="url(#p3dcd04e367)" style="fill: none; stroke: #1f77b4; stroke-width: 1.5"/>
    <path d="M 158.539174 503.821364 
L 158.539174 306.248636 
" clip-path="url(#p3dcd04e367)" style="fill: none; stroke: #1f77b4; stroke-width: 1.5"/>
    <path d="M 215.273058 503.821364 
L 215.273058 306.248636 
" clip-path="url(#p3dcd04e367)" style="fill: none; stroke: #1f77b4; stroke-width: 1.5"/>
    <path d="M 272.006942 503.821364 
L 272.006942 306.248636 
" clip-path="url(#p3dcd04e367)" style="fill: none; stroke: #1f77b4; stroke-width: 1.5"/>
    <path d="M 328.740826 503.821364 
L 328.740826 306.248636 
" clip-path="url(#p3dcd04e367)" style="fill: none; stroke: #1f77b4; stroke-width: 1.5"/>
    <path d="M 385.474711 503.821364 
L 385.474711 306.248636 
" clip-path="url(#p3dcd04e367)" style="fill: none; stroke: #1f77b4; stroke-width: 1.5"/>
   </g>
   <g id="LineCollection_8">
    <path d="M 94.713554 306.248636 
L 108.897025 306.248636 
" clip-path="url(#p3dcd04e367)" style="fill: none; stroke: #1f77b4; stroke-width: 1.5"/>
    <path d="M 151.447438 306.248636 
L 165.630909 306.248636 
" clip-path="url(#p3dcd04e367)" style="fill: none; stroke: #1f77b4; stroke-width: 1.5"/>
    <path d="M 208.181322 306.248636 
L 222.364793 306.248636 
" clip-path="url(#p3dcd04e367)" style="fill: none; stroke: #1f77b4; stroke-width: 1.5"/>
    <path d="M 264.915207 306.248636 
L 279.098678 306.248636 
" clip-path="url(#p3dcd04e367)" style="fill: none; stroke: #1f77b4; stroke-width: 1.5"/>
    <path d="M 321.649091 306.248636 
L 335.832562 306.248636 
" clip-path="url(#p3dcd04e367)" style="fill: none; stroke: #1f77b4; stroke-width: 1.5"/>
    <path d="M 378.382975 306.248636 
L 392.566446 306.248636 
" clip-path="url(#p3dcd04e367)" style="fill: none; stroke: #1f77b4; stroke-width: 1.5"/>
   </g>
   <g id="patch_8">
    <path d="M 72.02 513.7 
L 72.02 296.37 
" style="fill: none; stroke: #000000; stroke-width: 0.8; stroke-linejoin: miter; stroke-linecap: square"/>
   </g>
   <g id="patch_9">
    <path d="M 415.26 513.7 
L 415.26 296.37 
" style="fill: none; stroke: #000000; stroke-width: 0.8; stroke-linejoin: miter; stroke-linecap: square"/>
   </g>
   <g id="patch_10">
    <path d="M 72.02 513.7 
L 415.26 513.7 
" style="fill: none; stroke: #000000; stroke-width: 0.8; stroke-linejoin: miter; stroke-linecap: square"/>
   </g>
   <g id="patch_11">
    <path d="M 72.02 296.37 
L 415.26 296.37 
" style="fill: none; stroke: #000000; stroke-width: 0.8; stroke-linejoin: miter; stroke-linecap: square"/>
   </g>
  </g>
 </g>
 <defs>
  <clipPath id="p2f09e9795c">
   <rect x="72.02" y="16.74" width="343.24" height="217.33"/>
  </clipPath>
  <clipPath id="p3dcd04e367">
   <rect x="72.02" y="296.37" width="343.24" height="217.33"/>
  </clipPath>
 </defs>
</svg>
